<?xml version="1.0" standalone="no"?>
<!DOCTYPE svg PUBLIC "-//W3C//DTD SVG 1.1//EN" "http://www.w3.org/Graphics/SVG/1.1/DTD/svg11.dtd" >
<svg xmlns="http://www.w3.org/2000/svg" xmlns:xlink="http://www.w3.org/1999/xlink" version="1.1">
<metadata>
Created by FontForge 20170731 at Sat Sep 17 21:34:57 2005
 By Aleksey,,,
Copyright (C) 1999, Emigre, Inc. Designed by Sibylle Hagmann
</metadata>
<defs>
<font id="ChollaUnicase" horiz-adv-x="519" >
  <font-face 
    font-family="ChollaUnicase"
    font-weight="400"
    font-stretch="normal"
    units-per-em="1000"
    panose-1="2 11 5 0 0 0 0 0 0 0"
    ascent="800"
    descent="-200"
    x-height="474"
    cap-height="474"
    bbox="-88 -250 993 750"
    underline-thickness="20"
    underline-position="-173"
    unicode-range="U+0020-E000"
  />
<missing-glyph horiz-adv-x="502" 
d="M499 0h-500v500h500v-500zM9 490v-480h480v480h-480z" />
    <glyph glyph-name=".notdef" horiz-adv-x="502" 
d="M499 0h-500v500h500v-500zM9 490v-480h480v480h-480z" />
    <glyph glyph-name=".null" horiz-adv-x="0" 
 />
    <glyph glyph-name="nonmarkingreturn" horiz-adv-x="333" 
 />
    <glyph glyph-name="space" unicode=" " horiz-adv-x="234" 
 />
    <glyph glyph-name="exclam" unicode="!" horiz-adv-x="248" 
d="M161 444v-223q0 -13 -9 -21.5t-21 -8.5h-14q-13 0 -21.5 8.5t-8.5 21.5v223q0 13 8.5 21.5t21.5 8.5h14q12 0 21 -8.5t9 -21.5zM161 93v-63q0 -13 -9 -21.5t-21 -8.5h-14q-13 0 -21.5 8.5t-8.5 21.5v63q0 13 8.5 21.5t21.5 8.5h14q12 0 21 -8.5t9 -21.5z" />
    <glyph glyph-name="quotedbl" unicode="&#x22;" horiz-adv-x="355" 
d="M310 446l-16 -183q-1 -12 -9.5 -19.5t-18.5 -7.5h-8q-27 0 -29 27l-15 183q0 12 8 20t22 8h35q14 0 22.5 -8t8.5 -20zM141 446l-16 -183q-1 -12 -9 -19.5t-18 -7.5h-8q-27 0 -29 27l-16 183q0 11 8.5 19.5t21.5 8.5h35q14 0 22.5 -8t8.5 -20z" />
    <glyph glyph-name="numbersign" unicode="#" horiz-adv-x="597" 
d="M571 327v-11q0 -12 -9.5 -20t-21.5 -8h-98l-10 -86h98q25 0 25 -28l-1 -11q-1 -11 -10.5 -19.5t-20.5 -8.5h-97l-12 -107q-1 -12 -10 -20t-21 -8h-17q-11 0 -18.5 8t-7.5 20l12 107h-130l-12 -107q-1 -11 -10.5 -19.5t-20.5 -8.5h-18q-11 0 -18 8t-7 20l12 107h-97
q-11 0 -18 8t-7 20v11q0 12 9.5 20t21.5 8h98l10 86h-98q-25 0 -25 28l1 11q1 11 10 19.5t21 8.5h97l10 91q2 12 10.5 20t19.5 8h18q11 0 18 -8t7 -20l-10 -91h131l10 91q5 28 31 28h17q25 0 25 -28l-10 -91h98q11 0 18 -8t7 -20zM359 202l10 86h-131l-10 -86h131z" />
    <glyph glyph-name="dollar" unicode="$" horiz-adv-x="501" 
d="M442 189v-75q0 -50 -32 -82t-83 -32h-46v-80q0 -9 -6 -15.5t-15 -6.5h-19q-9 0 -15.5 6.5t-6.5 15.5v80h-131q-13 0 -21.5 7.5t-8.5 20.5v11q0 13 8.5 20.5t21.5 7.5h131v140h-63q-41 0 -69 25.5t-28 66.5v69q0 37 31 71q32 35 82 35h47v77q0 9 6.5 15.5t15.5 6.5h18
q10 0 16 -6.5t6 -15.5v-77h103q13 0 21.5 -7.5t8.5 -20.5v-11q0 -13 -8.5 -20.5t-21.5 -7.5h-103v-138h85q32 0 54 -23.5t22 -56.5zM186 269h33v138h-28q-25 0 -41.5 -16.5t-16.5 -39.5v-42q0 -40 53 -40zM368 127v39q0 16 -12.5 28.5t-29.5 12.5h-45v-140h30q23 0 40 18.5
t17 41.5z" />
    <glyph glyph-name="percent" unicode="%" horiz-adv-x="740" 
d="M693 189v-109q0 -33 -23.5 -56.5t-56.5 -23.5h-78q-33 0 -56.5 23.5t-23.5 56.5v109q0 33 23.5 56.5t56.5 23.5h78q33 0 56.5 -23.5t23.5 -56.5zM524 456q0 -5 -2 -9l-259 -446q-5 -9 -14 -9q-6 0 -10 2l-14 8q-9 4 -9 15q0 6 2 10l259 446q5 9 14 9q6 0 10 -2l14 -8
q9 -6 9 -16zM285 394v-109q0 -33 -23 -56.5t-56 -23.5h-78q-34 0 -57.5 23.5t-23.5 56.5v109q0 33 23.5 56.5t56.5 23.5h78q34 0 57 -23.5t23 -56.5zM634 81v108q0 25 -25 25h-70q-25 0 -25 -25v-108q0 -10 7.5 -18t17.5 -8h70q11 0 18 8t7 18zM226 286v108q0 25 -25 25h-70
q-25 0 -25 -25v-108q0 -10 7.5 -18t17.5 -8h70q11 0 18 8t7 18z" />
    <glyph glyph-name="ampersand" unicode="&#x26;" horiz-adv-x="510" 
d="M508 198v-11q0 -12 -8.5 -20t-21.5 -8h-42v-51q0 -46 -34 -77t-79 -31h-149q-44 0 -79 32q-34 33 -34 78v89q0 63 57 87q-22 9 -34 29.5t-12 43.5v15q0 42 29.5 71t73.5 29h145q13 0 21.5 -7.5t8.5 -20.5v-11q0 -13 -8.5 -20.5t-21.5 -7.5h-133q-18 0 -29.5 -10.5
t-11.5 -26.5v-15q0 -15 11.5 -26t29.5 -11h29q13 0 21.5 -7.5t8.5 -20.5v-11q0 -13 -8.5 -20.5t-21.5 -7.5h-38q-43 0 -43 -43v-77q0 -27 16 -45.5t40 -18.5h110q29 0 45 19t16 47v26h-41q-13 0 -21.5 7.5t-8.5 20.5v11q0 13 8.5 20.5t21.5 7.5h157q13 0 21.5 -8t8.5 -20z
" />
    <glyph glyph-name="quotesingle" unicode="'" horiz-adv-x="187" 
d="M142 446l-16 -183q-1 -12 -9.5 -19.5t-18.5 -7.5h-8q-27 0 -29 27l-16 183q0 12 8.5 20t22.5 8h35q13 0 22 -8.5t9 -19.5z" />
    <glyph glyph-name="parenleft" unicode="(" horiz-adv-x="287" 
d="M252 -191q0 -12 -4 -16l-7 -7q-6 -6 -16 -6t-14 4l-84 60q-27 20 -27 60v648q0 40 27 60l84 60q4 4 14 4t16 -6l7 -7q4 -4 4 -16q0 -8 -7 -15l-71 -70v-668l71 -70q7 -7 7 -15z" />
    <glyph glyph-name="parenright" unicode=")" horiz-adv-x="287" 
d="M187 552v-648q0 -40 -27 -60l-84 -60q-4 -4 -14 -4t-16 6l-7 7q-4 4 -4 16q0 8 7 15l71 70v668l-71 70q-7 7 -7 15q0 12 4 16l7 7q6 6 16 6t14 -4l84 -60q27 -20 27 -60z" />
    <glyph glyph-name="asterisk" unicode="*" horiz-adv-x="487" 
d="M447 423v-16q0 -7 -5.5 -12.5t-12.5 -5.5l-135 4l98 -91q6 -6 6 -13t-6 -13l-11 -11q-6 -6 -12 -6q-7 0 -13 6l-91 99l5 -135q0 -7 -5.5 -12.5t-12.5 -5.5h-17q-7 0 -12.5 5.5t-5.5 12.5l5 135l-91 -99q-6 -6 -13 -6q-6 0 -12 6l-11 11q-6 6 -6 13t6 13l98 91l-135 -4
q-7 0 -12.5 5.5t-5.5 12.5v16q0 8 5.5 13t12.5 5l135 -4l-98 91q-6 6 -6 14t6 12l11 10q7 5 13 5q7 0 12 -5l91 -98l-5 135q0 8 5.5 13t12.5 5h17q7 0 12.5 -5t5.5 -13l-5 -135l91 98q5 5 12 5q6 0 13 -5l11 -10q6 -4 6 -12t-6 -14l-98 -91l135 4q7 0 12.5 -5t5.5 -13z" />
    <glyph glyph-name="plus" unicode="+" horiz-adv-x="500" 
d="M455 262v-15q0 -11 -8.5 -18.5t-19.5 -7.5h-141v-143q0 -11 -8 -19.5t-20 -8.5h-17q-12 0 -20.5 8.5t-8.5 19.5v143h-139q-11 0 -19.5 7.5t-8.5 18.5v15q0 11 8.5 18.5t19.5 7.5h139v143q0 11 8.5 19.5t20.5 8.5h17q11 0 19.5 -8.5t8.5 -19.5v-143h141q11 0 19.5 -7.5
t8.5 -18.5z" />
    <glyph glyph-name="comma" unicode="," horiz-adv-x="232" 
d="M163 114v-91q0 -32 -18 -64l-42 -74q-5 -8 -13 -8h-3q-1 1 -3 1l-5 2q-8 3 -8 12v3q1 1 1 3l30 64q6 12 6 20q0 12 -10 15h-1q-28 15 -28 34v83q0 12 9 20.5t21 8.5h34q12 0 21 -8.5t9 -20.5z" />
    <glyph glyph-name="hyphen" unicode="-" horiz-adv-x="342" 
d="M308 263v-17q0 -25 -25 -25h-223q-10 0 -18 7.5t-8 17.5v17q0 11 8 18t18 7h223q25 0 25 -25z" />
    <glyph glyph-name="period" unicode="." horiz-adv-x="232" 
d="M163 114v-89q0 -10 -10 -17.5t-23 -7.5h-30q-13 0 -22 7.5t-9 19.5v87q0 12 8.5 20.5t21.5 8.5h34q13 0 21.5 -8.5t8.5 -20.5z" />
    <glyph glyph-name="slash" unicode="/" horiz-adv-x="267" 
d="M286 652l-246 -672q-6 -18 -25 -18q-3 0 -9 2l-12 4q-17 6 -17 24q0 4 2 10l246 672q6 18 25 18q3 0 9 -2l11 -4q18 -6 18 -25q0 -3 -2 -9z" />
    <glyph glyph-name="zero" unicode="0" horiz-adv-x="509" 
d="M448 364v-254q0 -46 -33 -78t-79 -32h-161q-46 0 -81 32q-33 32 -33 78v254q0 46 33 78q35 32 81 32h161q46 0 79 -32t33 -78zM374 133v208q0 29 -16.5 47.5t-43.5 18.5h-121q-27 0 -42.5 -18t-15.5 -48v-208q0 -30 15.5 -48t42.5 -18h121q27 0 43.5 19t16.5 47z" />
    <glyph glyph-name="one" unicode="1" horiz-adv-x="509" 
d="M327 445v-415q0 -13 -9 -21.5t-21 -8.5h-14q-13 0 -21.5 8.5t-8.5 21.5v320l-78 -42q-12 -5 -16 -5q-10 0 -16.5 6t-6.5 14q0 11 8 19l122 115l3 3q17 14 28 14h5q11 0 18 -8t7 -21z" />
    <glyph glyph-name="two" unicode="2" horiz-adv-x="509" 
d="M426 361v-40q0 -31 -17 -54.5t-47 -33.5l-146 -50q-47 -17 -47 -72v-44h226q13 0 21.5 -7.5t8.5 -20.5v-11q0 -13 -8.5 -20.5t-21.5 -7.5h-300v126q0 92 81 117l137 43q39 11 39 47v20q0 24 -16.5 39t-43.5 15h-155q-13 0 -21.5 7.5t-8.5 20.5v11q0 13 8.5 20.5t21.5 7.5
h172q51 0 84 -30.5t33 -82.5z" />
    <glyph glyph-name="three" unicode="3" horiz-adv-x="509" 
d="M410 149v-39q0 -46 -32 -78t-79 -32h-224q-13 0 -22 8t-9 20v11q0 12 9 20t22 8h203q24 0 41 17t17 41v19q0 24 -17 41t-41 17h-125q-13 0 -22 8t-9 20v11q0 12 9 20t22 8h114q24 0 41 17t17 41v22q0 24 -17 41t-41 17h-172q-13 0 -22 8t-9 20v11q0 12 9 20t22 8h194
q47 0 78.5 -31.5t31.5 -77.5v-48q0 -60 -44 -83q55 -24 55 -85z" />
    <glyph glyph-name="four" unicode="4" horiz-adv-x="509" 
d="M483 174v-11q0 -12 -8.5 -20t-21.5 -8h-87v-105q0 -13 -9 -21.5t-21 -8.5h-14q-13 0 -21.5 8.5t-8.5 21.5v105h-221q-20 0 -32.5 12t-12.5 28q0 22 16 39l218 242q18 18 32 18h40q14 0 24 -10t10 -27v-235h87q13 0 21.5 -8t8.5 -20zM123 202h169v188z" />
    <glyph glyph-name="five" unicode="5" horiz-adv-x="509" 
d="M434 179v-66q0 -50 -26.5 -81.5t-76.5 -31.5h-226q-13 0 -21.5 7.5t-8.5 20.5v11q0 13 8.5 20.5t21.5 7.5h211q44 0 44 57v37q0 16 -12.5 28.5t-30.5 12.5h-230v231q0 41 42 41h243q13 0 22 -8t9 -20v-11q0 -12 -8.5 -20t-21.5 -8h-212v-138h184q40 0 64.5 -25t24.5 -65z
" />
    <glyph glyph-name="six" unicode="6" horiz-adv-x="509" 
d="M453 158v-50q0 -46 -33 -77q-32 -31 -79 -31h-163q-46 0 -79 32t-33 78v250q0 50 32 82t76 32h209q13 0 21.5 -7.5t8.5 -20.5v-11q0 -13 -8.5 -20.5t-21.5 -7.5h-175q-68 0 -68 -67v-106q9 15 28 25t40 10h134q46 0 78.5 -32.5t32.5 -78.5zM379 125v19q0 24 -17 41
t-41 17h-122q-24 0 -41.5 -17t-17.5 -41v-19q0 -24 17.5 -41t41.5 -17h122q24 0 41 17t17 41z" />
    <glyph glyph-name="seven" unicode="7" horiz-adv-x="509" 
d="M449 440q0 -19 -7 -31l-230 -398q-8 -14 -25 -14q-5 0 -12 4l-12 7q-13 7 -13 21q0 8 4 15l210 363h-281q-13 0 -21.5 7.5t-8.5 20.5v11q0 13 8.5 20.5t21.5 7.5h334q14 0 23 -10.5t9 -23.5z" />
    <glyph glyph-name="eight" unicode="8" horiz-adv-x="509" 
d="M448 146v-37q0 -46 -32.5 -77.5t-78.5 -31.5h-165q-46 0 -78.5 31.5t-32.5 77.5v37q0 36 11.5 56.5t40.5 33.5q-25 14 -34.5 32.5t-9.5 49.5v49q0 45 32 76t78 31h151q46 0 78 -31t32 -76v-49q0 -31 -9.5 -49.5t-34.5 -32.5q29 -14 40.5 -35t11.5 -55zM366 324v29
q0 23 -16 38.5t-39 15.5h-114q-22 0 -38 -16t-16 -38v-29q0 -23 16 -39t38 -16h114q23 0 39 16t16 39zM374 122v25q0 23 -16 39t-39 16h-129q-23 0 -39 -16t-16 -38v-26q0 -23 16 -39t39 -16h129q23 0 39 16t16 39z" />
    <glyph glyph-name="nine" unicode="9" horiz-adv-x="509" 
d="M443 366v-254q0 -53 -28 -82.5t-76 -29.5h-226q-13 0 -21.5 7.5t-8.5 20.5v11q0 13 8.5 20.5t21.5 7.5h212q20 0 32 16t12 41v111q-28 -33 -65 -33h-137q-46 0 -79 35q-32 35 -32 81v48q0 46 31.5 77t77.5 31h169q47 0 78 -31t31 -77zM369 324v29q0 22 -16 38t-39 16
h-128q-23 0 -39.5 -16t-16.5 -38v-29q0 -22 16.5 -38.5t39.5 -16.5h128q23 0 39 16t16 39z" />
    <glyph glyph-name="colon" unicode=":" horiz-adv-x="232" 
d="M163 445v-89q0 -10 -10 -17.5t-23 -7.5h-30q-13 0 -22 7.5t-9 19.5v87q0 12 9 20.5t21 8.5h34q12 0 21 -8.5t9 -20.5zM163 114v-89q0 -10 -10 -17.5t-23 -7.5h-30q-13 0 -22 7.5t-9 19.5v87q0 12 9 20.5t21 8.5h34q12 0 21 -8.5t9 -20.5z" />
    <glyph glyph-name="semicolon" unicode=";" horiz-adv-x="232" 
d="M163 445v-89q0 -10 -10 -17.5t-23 -7.5h-30q-13 0 -22 7.5t-9 19.5v87q0 12 9 20.5t21 8.5h34q12 0 21 -8.5t9 -20.5zM163 114v-91q0 -32 -18 -64l-42 -74q-5 -8 -14 -8q-4 0 -5 1l-5 2q-8 3 -8 12q0 5 1 6l30 64q6 12 6 20q0 12 -10 15h-1q-28 15 -28 34v83q0 12 9 20.5
t21 8.5h34q12 0 21 -8.5t9 -20.5z" />
    <glyph glyph-name="less" unicode="&#x3c;" horiz-adv-x="500" 
d="M462 99l-2 -6q0 -1 -1 -2l-10 -21q-6 -12 -20 -12q-3 0 -9 2l-367 166q-15 8 -15 18v15q0 13 15 21l367 166q8 2 9 2q15 0 21 -12l9 -21q3 -6 3 -11q0 -12 -12 -17l-307 -133l307 -135q12 -6 12 -20z" />
    <glyph glyph-name="equal" unicode="=" horiz-adv-x="500" 
d="M455 348v-11q0 -11 -8.5 -20t-19.5 -9h-354q-11 0 -19.5 9t-8.5 20v11q0 11 8.5 19t19.5 8h354q11 0 19.5 -8t8.5 -19zM455 172v-11q0 -11 -8.5 -19.5t-19.5 -8.5h-354q-11 0 -19.5 8.5t-8.5 19.5v11q0 11 8.5 19.5t19.5 8.5h354q11 0 19.5 -8.5t8.5 -19.5z" />
    <glyph glyph-name="greater" unicode="&#x3e;" horiz-adv-x="500" 
d="M462 259v-15q0 -10 -15 -18l-367 -166q-6 -2 -9 -2q-14 0 -20 12l-10 21l-1 2l-2 6q0 14 12 20l307 135l-307 133q-12 5 -12 17q0 5 3 11l9 21q6 12 21 12q1 0 9 -2l367 -166q15 -8 15 -21z" />
    <glyph glyph-name="question" unicode="?" horiz-adv-x="416" 
d="M368 374v-23q0 -41 -29.5 -70.5t-70.5 -29.5h-82v-30q0 -13 -9 -21.5t-21 -8.5h-14q-13 0 -21.5 8.5t-8.5 21.5v64q0 33 34 33h106q18 0 30 10t12 27v15q0 17 -12 27t-30 10h-182q-12 0 -21 8.5t-9 20.5v10q0 12 9 20t21 8h198q41 0 70.5 -29.5t29.5 -70.5zM186 93v-63
q0 -13 -9 -21.5t-21 -8.5h-14q-13 0 -21.5 8.5t-8.5 21.5v63q0 13 8.5 21.5t21.5 8.5h14q12 0 21 -8.5t9 -21.5z" />
    <glyph glyph-name="at" unicode="@" horiz-adv-x="742" 
d="M681 391v-317q0 -31 -20 -52.5t-52 -21.5h-80q-32 0 -52 27q-9 13 -21 13q-8 0 -33 -13q-55 -30 -101 -30h-21q-48 0 -79.5 30.5t-31.5 73.5v40q0 47 30.5 79t80.5 32h21q42 0 91 -29q27 -15 39 -15q14 0 14 22v10q0 68 -66 68h-144q-9 0 -16 7.5t-7 16.5v14
q0 9 6.5 16.5t16.5 7.5h174q41 0 71 -31q31 -30 31 -71v-185q0 -25 24 -25h47q24 0 24 25v292q0 20 -14 34.5t-35 14.5h-414q-20 0 -34.5 -14.5t-14.5 -34.5v-386q0 -21 14.5 -35t34.5 -14h389q8 0 14 -6t6 -14v-10q0 -8 -6 -14t-14 -6h-409q-35 0 -59 24t-24 59v418
q0 35 24 59t59 24h454q35 0 59 -24t24 -59zM466 113v26q0 20 -15.5 33t-37.5 13h-104q-22 0 -37.5 -13t-15.5 -33v-26q0 -21 16 -35t37 -14h104q22 0 37.5 14t15.5 35z" />
    <glyph glyph-name="A" unicode="A" horiz-adv-x="510" 
d="M485 28q0 -16 -18 -23l-14 -6q-6 -2 -13 -2q-16 0 -23 18l-53 127h-218l-53 -127q-7 -18 -23 -18q-7 0 -13 2l-14 6q-18 7 -18 23q0 6 4 15l166 399q14 32 42 32h36q28 0 42 -32l166 -399q4 -9 4 -15zM174 209h162l-81 196z" />
    <glyph glyph-name="B" unicode="B" horiz-adv-x="498" 
d="M443 157v-51q0 -43 -32.5 -74.5t-79.5 -31.5h-265v449q0 11 8 18t19 7h13q12 0 19 -12l11 -20q8 -11 15 -11q19 0 51 19q49 27 88 27h12q57 0 88.5 -30.5t31.5 -82.5v-46q0 -28 -16 -49.5t-46 -28.5v-3q34 0 58.5 -22.5t24.5 -57.5zM348 326v26q0 23 -15.5 39t-38.5 16
h-98q-23 0 -39.5 -16t-16.5 -39v-83h148q23 0 41.5 17.5t18.5 39.5zM369 132v10q0 28 -15.5 44t-43.5 16h-170v-135h165q27 0 45.5 19t18.5 46z" />
    <glyph glyph-name="C" unicode="C" horiz-adv-x="427" 
d="M402 39v-11q0 -13 -8.5 -20.5t-21.5 -7.5h-196q-47 0 -78 34q-32 35 -32 80v249q0 47 34 78q35 33 80 33h180q13 0 21.5 -7.5t8.5 -20.5v-11q0 -13 -8.5 -20.5t-21.5 -7.5h-154q-66 0 -66 -65v-213q0 -62 67 -62h165q13 0 21.5 -7.5t8.5 -20.5z" />
    <glyph glyph-name="D" unicode="D" horiz-adv-x="528" 
d="M462 364v-254q0 -46 -32 -78t-79 -32h-285v449q0 25 27 25h14q10 0 17 -11l12 -21q8 -11 15 -11q18 0 51 17q55 29 114 29h23q57 0 90 -30.5t33 -82.5zM388 124v228q0 23 -15.5 39t-38.5 16h-138q-23 0 -39.5 -16t-16.5 -39v-285h188q23 0 41.5 17.5t18.5 39.5z" />
    <glyph glyph-name="E" unicode="E" horiz-adv-x="462" 
d="M432 39v-11q0 -13 -8.5 -20.5t-21.5 -7.5h-308q-12 0 -20 8t-8 20v418q0 12 8.5 20t20.5 8h293q13 0 21.5 -7.5t8.5 -20.5v-11q0 -13 -8.5 -20.5t-21.5 -7.5h-248v-138h228q13 0 21.5 -7.5t8.5 -20.5v-11q0 -13 -8.5 -20.5t-21.5 -7.5h-228v-135h262q13 0 21.5 -7.5
t8.5 -20.5z" />
    <glyph glyph-name="F" unicode="F" horiz-adv-x="425" 
d="M419 446v-11q0 -12 -8.5 -20t-21.5 -8h-249v-138h192q13 0 21.5 -8t8.5 -20v-11q0 -12 -8.5 -20t-21.5 -8h-192v-172q0 -13 -9 -21.5t-21 -8.5h-14q-13 0 -21.5 8.5t-8.5 21.5v417q0 11 8 19t20 8h295q13 0 21.5 -8t8.5 -20z" />
    <glyph glyph-name="G" unicode="G" horiz-adv-x="515" 
d="M453 239v-347q0 -46 -32.5 -79t-78.5 -33h-79q-13 0 -21.5 7.5t-8.5 20.5v11q0 13 8.5 20.5t21.5 7.5h50q66 0 66 63v112q0 7 -4 13t-10 6q-13 0 -46 -15q-67 -29 -109 -29h-15q-59 0 -94 31.5t-35 86.5v244q0 52 34 83q35 32 79 32h226q13 0 21.5 -7.5t8.5 -20.5v-11
q0 -13 -8.5 -20.5t-21.5 -7.5h-211q-22 0 -38 -16t-16 -40v-224q0 -25 17.5 -42.5t42.5 -17.5h119q25 0 42.5 17.5t17.5 42.5v112q0 13 8.5 21.5t21.5 8.5h14q12 0 21 -8.5t9 -21.5z" />
    <glyph glyph-name="H" unicode="H" horiz-adv-x="523" 
d="M457 444v-414q0 -13 -9 -21.5t-21 -8.5h-14q-13 0 -21.5 8.5t-8.5 21.5v172h-243v-172q0 -13 -9 -21.5t-21 -8.5h-14q-13 0 -21.5 8.5t-8.5 21.5v414q0 13 8.5 21.5t21.5 8.5h14q12 0 21 -8.5t9 -21.5v-175h243v175q0 13 8.5 21.5t21.5 8.5h14q12 0 21 -8.5t9 -21.5z" />
    <glyph glyph-name="I" unicode="I" horiz-adv-x="370" 
d="M309 39v-11q0 -13 -8.5 -20.5t-21.5 -7.5h-188q-13 0 -21.5 7.5t-8.5 20.5v11q0 12 8.5 20t21.5 8h57v340h-52q-13 0 -21.5 7.5t-8.5 20.5v11q0 12 8.5 20t21.5 8h178q13 0 21.5 -8t8.5 -20v-11q0 -13 -8.5 -20.5t-21.5 -7.5h-52v-340h57q13 0 21.5 -8t8.5 -20z" />
    <glyph glyph-name="J" unicode="J" horiz-adv-x="258" 
d="M166 646v-55q0 -13 -9 -21.5t-21 -8.5h-14q-13 0 -21.5 8.5t-8.5 21.5v55q0 13 8.5 21.5t21.5 8.5h14q12 0 21 -8.5t9 -21.5zM166 444v-634q0 -13 -9 -21.5t-21 -8.5h-14q-13 0 -21.5 8.5t-8.5 21.5v634q0 13 8.5 21.5t21.5 8.5h14q12 0 21 -8.5t9 -21.5z" />
    <glyph glyph-name="K" unicode="K" horiz-adv-x="439" 
d="M416 37q0 -12 -11 -23l-13 -11q-8 -6 -19 -6q-9 0 -20 11l-213 185v-163q0 -13 -9 -21.5t-21 -8.5h-14q-13 0 -21.5 8.5t-8.5 21.5v414q0 13 8.5 21.5t21.5 8.5h14q12 0 21 -8.5t9 -21.5v-161l212 187q7 7 18 7q12 0 23 -12l9 -11q7 -7 7 -17q0 -14 -13 -24l-197 -174
l210 -183q7 -7 7 -19z" />
    <glyph glyph-name="L" unicode="L" horiz-adv-x="410" 
d="M407 39v-11q0 -13 -8.5 -20.5t-21.5 -7.5h-311v444q0 13 8.5 21.5t21.5 8.5h14q12 0 21 -8.5t9 -21.5v-377h237q13 0 21.5 -7.5t8.5 -20.5z" />
    <glyph glyph-name="M" unicode="M" horiz-adv-x="554" 
d="M488 446v-416q0 -13 -8.5 -21.5t-21.5 -8.5h-14q-12 0 -21 8.5t-9 21.5v316l-100 -140q-16 -22 -32 -22h-10q-16 0 -32 22l-100 140v-316q0 -13 -9 -21.5t-21 -8.5h-14q-13 0 -21.5 8.5t-8.5 21.5v416q0 12 7.5 20t20.5 8h18q16 0 31 -22l134 -189l135 189q15 22 30 22
h18q13 0 20.5 -8t7.5 -20z" />
    <glyph glyph-name="N" unicode="N" horiz-adv-x="509" 
d="M443 444v-414q0 -13 -9 -21.5t-21 -8.5h-14q-13 0 -21.5 8.5t-8.5 21.5v88l-229 243v-331q0 -13 -9 -21.5t-21 -8.5h-14q-13 0 -21.5 8.5t-8.5 21.5v416q0 12 7.5 20t20.5 8h14q16 0 30 -15l231 -245v230q0 13 8.5 21.5t21.5 8.5h14q12 0 21 -8.5t9 -21.5z" />
    <glyph glyph-name="O" unicode="O" horiz-adv-x="517" 
d="M451 364v-252q0 -46 -32.5 -79t-78.5 -33h-163q-46 0 -78.5 33t-32.5 79v252q0 47 34 78q35 32 81 32h155q46 0 81 -32q34 -31 34 -78zM377 122v230q0 23 -16 39t-39 16h-127q-23 0 -39 -16t-16 -39v-230q0 -23 16 -39t38 -16h128q23 0 39 16t16 39z" />
    <glyph glyph-name="P" unicode="P" 
d="M453 359v-244q0 -55 -35 -86.5t-94 -31.5h-15q-48 0 -108 29q-35 15 -47 15q-6 0 -10 -6t-4 -13v-212q0 -13 -9 -21.5t-21 -8.5h-14q-13 0 -21.5 8.5t-8.5 21.5v639q0 10 6.5 17.5t15.5 7.5h16q14 0 22 -13l11 -21q5 -9 17 -9q14 0 47 16q62 30 108 30h15q59 0 94 -31.5
t35 -86.5zM379 127v220q0 25 -17.5 42.5t-42.5 17.5h-119q-25 0 -42.5 -17.5t-17.5 -42.5v-220q0 -25 17.5 -42.5t42.5 -17.5h119q25 0 42.5 17.5t17.5 42.5z" />
    <glyph glyph-name="Q" unicode="Q" horiz-adv-x="517" 
d="M451 364v-252q0 -46 -32.5 -79t-78.5 -33h-42l-14 -117q-2 -20 -20 -20h-11q-18 0 -20 20l-14 117h-42q-46 0 -78.5 33t-32.5 79v252q0 47 34 78q35 32 81 32h155q46 0 81 -32q34 -31 34 -78zM377 122v230q0 23 -16 39t-39 16h-127q-23 0 -39 -16t-16 -39v-230
q0 -23 16 -39t38 -16h128q23 0 39 16t16 39z" />
    <glyph glyph-name="R" unicode="R" horiz-adv-x="475" 
d="M442 31q0 -19 -15 -26l-11 -5q-8 -3 -13 -3q-17 0 -26 16l-94 189h-143v-172q0 -13 -9 -21.5t-21 -8.5h-14q-13 0 -21.5 8.5t-8.5 21.5v419q0 25 27 25h13q12 0 19 -12l11 -20q6 -11 15 -11q15 0 50 18q52 28 89 28h12q58 0 89.5 -31t31.5 -81v-47q0 -72 -68 -105
l83 -167q4 -7 4 -15zM349 326v26q0 23 -15.5 39t-38.5 16h-99q-23 0 -39.5 -16t-16.5 -39v-83h149q23 0 41.5 17.5t18.5 39.5z" />
    <glyph glyph-name="S" unicode="S" horiz-adv-x="480" 
d="M430 179v-67q0 -52 -28 -82t-75 -30h-247q-13 0 -21.5 7.5t-8.5 20.5v11q0 13 8.5 20.5t21.5 7.5h233q22 0 32.5 16.5t10.5 40.5v40q0 43 -43 43h-164q-37 0 -68 29q-30 28 -30 72v62q0 36 31 70t83 34h197q13 0 22 -8t9 -20v-11q0 -12 -8.5 -20t-21.5 -8h-181
q-27 0 -42 -14t-15 -37v-37q0 -20 15.5 -35t39.5 -15h161q39 0 64 -24t25 -66z" />
    <glyph glyph-name="T" unicode="T" horiz-adv-x="428" 
d="M413 446v-11q0 -12 -8.5 -20t-21.5 -8h-132v-377q0 -13 -9 -21.5t-21 -8.5h-14q-13 0 -21.5 8.5t-8.5 21.5v377h-131q-13 0 -22 8t-9 20v11q0 12 9 20t21 8h337q13 0 22 -8t9 -20z" />
    <glyph glyph-name="U" unicode="U" 
d="M453 444v-420q0 -10 -6 -17t-15 -7h-17q-14 0 -22 14l-10 18q-5 9 -18 9t-46 -15q-60 -29 -109 -29h-15q-55 0 -92 32.5t-37 85.5v329q0 13 8.5 21.5t21.5 8.5h14q12 0 21 -8.5t9 -21.5v-317q0 -25 17.5 -42.5t42.5 -17.5h119q25 0 42.5 17.5t17.5 42.5v317
q0 13 8.5 21.5t21.5 8.5h14q12 0 21 -8.5t9 -21.5z" />
    <glyph glyph-name="V" unicode="V" horiz-adv-x="487" 
d="M454 430l-151 -391q-6 -16 -20 -27.5t-26 -11.5h-27q-12 0 -26 11.5t-20 27.5l-151 391q-2 8 -2 13q0 18 19 25l14 6q8 3 15 3q17 0 24 -19l104 -283q24 -65 35 -110h3q11 45 35 110l104 283q7 19 24 19q8 0 15 -3l14 -6q19 -7 19 -25q0 -5 -2 -13z" />
    <glyph glyph-name="W" unicode="W" horiz-adv-x="669" 
d="M629 448q0 -8 -1 -11l-93 -399q-3 -16 -15 -27t-27 -11h-37q-31 0 -43 33l-78 247l-82 -247q-12 -33 -42 -33h-35q-15 0 -27 11t-15 27l-94 399q0 2 -1 5v5q0 19 20 25l16 4q3 0 5 1h4q22 0 28 -26l62 -277q2 -8 4 -17t4.5 -22t4.5 -21q3 -11 10 -49h2q1 4 5 18t9.5 32
t11.5 36l73 227l-19 63q-2 6 -2 7q0 16 15 21l23 7q2 1 9 1q13 0 19 -17l100 -309q6 -18 11.5 -36t9.5 -32t5 -18h2q7 37 10 49q2 8 4.5 21t4.5 22t4 17l63 277q6 26 25 26h5q2 -1 4 -1l18 -4q20 -5 20 -24z" />
    <glyph glyph-name="X" unicode="X" horiz-adv-x="483" 
d="M287 243l160 -188q7 -7 7 -19q0 -10 -8 -18l-13 -13q-7 -7 -20 -7q-14 0 -23 11l-149 178l-148 -178q-9 -11 -23 -11q-13 0 -20 7l-13 13q-8 8 -8 18q0 12 7 19l159 188l-149 176q-7 7 -7 19q0 10 8 18l13 13q7 7 20 7q14 0 23 -11l138 -166l139 166q9 11 23 11
q13 0 20 -7l13 -13q8 -8 8 -18q0 -12 -7 -19z" />
    <glyph glyph-name="Y" unicode="Y" horiz-adv-x="422" 
d="M405 439q0 -11 -5 -18l-152 -209v-182q0 -13 -8.5 -21.5t-21.5 -8.5h-14q-13 0 -21.5 8.5t-8.5 21.5v182l-152 209q-5 7 -5 18q0 17 12 24l12 8q9 6 18 6q15 0 24 -12l128 -179l129 179q9 12 23 12q9 0 18 -6l12 -8q12 -7 12 -24z" />
    <glyph glyph-name="Z" unicode="Z" horiz-adv-x="470" 
d="M444 39v-11q0 -13 -8.5 -20.5t-21.5 -7.5h-346q-11 0 -20 8t-9 19v16q0 14 14 31l277 333h-247q-12 0 -21 8t-9 20v11q0 12 9 20t21 8h316q13 0 21 -8t8 -19v-11q0 -12 -18 -38l-276 -331h280q13 0 21.5 -7.5t8.5 -20.5z" />
    <glyph glyph-name="bracketleft" unicode="[" horiz-adv-x="280" 
d="M308 -171v-11q0 -12 -8.5 -20t-21.5 -8h-193v876h185q13 0 21.5 -7.5t8.5 -20.5v-11q0 -13 -8.5 -20.5t-21.5 -7.5h-111v-742h119q13 0 21.5 -8t8.5 -20z" />
    <glyph glyph-name="backslash" unicode="\" horiz-adv-x="267" 
d="M42 674l246 -672q2 -6 2 -10q0 -18 -17 -24l-12 -4q-6 -2 -9 -2q-19 0 -25 18l-246 672q-2 6 -2 9q0 19 18 25l11 4q6 2 9 2q19 0 25 -18z" />
    <glyph glyph-name="bracketright" unicode="]" horiz-adv-x="280" 
d="M-28 -182v11q0 12 9 20t21 8h119v742h-111q-13 0 -21.5 7.5t-8.5 20.5v11q0 13 8.5 20.5t21.5 7.5h185v-876h-193q-12 0 -21 8t-9 20z" />
    <glyph glyph-name="asciicircum" unicode="^" horiz-adv-x="565" 
d="M311 662l201 -314q3 -4 3 -11q0 -15 -14 -23l-20 -10q-6 -2 -10 -2q-13 0 -24 14l-164 260l-165 -260q-8 -14 -23 -14q-4 0 -10 2l-20 10q-15 8 -15 24q0 6 3 10l201 314q9 14 22 14h14q12 0 21 -14z" />
    <glyph glyph-name="underscore" unicode="_" horiz-adv-x="657" 
d="M657 -62v-16q0 -18 -18 -18h-621q-18 0 -18 18v15q0 7 5.5 13t12.5 6h621q8 0 13 -5.5t5 -12.5z" />
    <glyph glyph-name="grave" unicode="`" horiz-adv-x="288" 
d="M252 552l-6 -12q-3 -6 -16 -6h-5q-1 1 -3 1l-169 72q-17 8 -17 25q0 9 4 16l8 15q9 16 27 16q9 0 14 -4l154 -101q10 -7 10 -17v-3q-1 -1 -1 -2z" />
    <glyph glyph-name="a" unicode="a" horiz-adv-x="501" 
d="M435 364v-339q0 -10 -6.5 -17.5t-17.5 -7.5h-14q-14 0 -22 14l-10 17q-6 10 -18 10q-13 0 -46 -15q-67 -29 -109 -29h-15q-61 0 -95 33t-34 85v68q0 52 34 85t95 33h15q46 0 109 -30q32 -16 46 -16t14 18v70q0 64 -65 64h-177q-13 0 -22 8t-9 20v11q0 12 9 20t21 8h204
q46 0 79 -34q34 -33 34 -76zM361 118v62q0 21 -15 36t-37 15h-135q-22 0 -37 -15t-15 -36v-62q0 -21 15 -36t37 -15h135q22 0 37 15t15 36z" />
    <glyph glyph-name="b" unicode="b" horiz-adv-x="498" 
d="M443 157v-51q0 -43 -32.5 -74.5t-79.5 -31.5h-265v449q0 11 8 18t19 7h13q12 0 19 -12l11 -20q8 -11 15 -11q19 0 51 19q49 27 88 27h12q57 0 88.5 -30.5t31.5 -82.5v-46q0 -28 -16 -49.5t-46 -28.5v-3q34 0 58.5 -22.5t24.5 -57.5zM348 326v26q0 23 -15.5 39t-38.5 16
h-98q-23 0 -39.5 -16t-16.5 -39v-83h148q23 0 41.5 17.5t18.5 39.5zM369 132v10q0 28 -15.5 44t-43.5 16h-170v-135h165q27 0 45.5 19t18.5 46z" />
    <glyph glyph-name="c" unicode="c" horiz-adv-x="427" 
d="M402 39v-11q0 -13 -8.5 -20.5t-21.5 -7.5h-196q-47 0 -78 34q-32 35 -32 80v249q0 47 34 78q35 33 80 33h180q13 0 21.5 -7.5t8.5 -20.5v-11q0 -13 -8.5 -20.5t-21.5 -7.5h-154q-66 0 -66 -65v-213q0 -62 67 -62h165q13 0 21.5 -7.5t8.5 -20.5z" />
    <glyph glyph-name="d" unicode="d" horiz-adv-x="528" 
d="M462 364v-254q0 -46 -32 -78t-79 -32h-285v449q0 25 27 25h14q10 0 17 -11l12 -21q8 -11 15 -11q18 0 51 17q55 29 114 29h23q57 0 90 -30.5t33 -82.5zM388 124v228q0 23 -15.5 39t-38.5 16h-138q-23 0 -39.5 -16t-16.5 -39v-285h188q23 0 41.5 17.5t18.5 39.5z" />
    <glyph glyph-name="e" unicode="e" horiz-adv-x="496" 
d="M453 364v-97q0 -29 -16 -44.5t-42 -15.5h-255v-79q0 -61 65 -61h138q13 0 21.5 -7.5t8.5 -20.5v-11q0 -13 -8.5 -20.5t-21.5 -7.5h-168q-44 0 -77 34q-32 35 -32 80v250q0 47 34 78q35 32 81 32h157q46 0 81 -32q34 -31 34 -78zM140 269h239v84q0 23 -16 38.5t-38 15.5
h-131q-22 0 -38 -15.5t-16 -38.5v-84z" />
    <glyph glyph-name="f" unicode="f" horiz-adv-x="405" 
d="M403 446v-11q0 -12 -8.5 -20t-21.5 -8h-183q-24 0 -37 -15.5t-13 -40.5v-82h169q13 0 22 -8t9 -20v-11q0 -12 -8.5 -20t-21.5 -8h-170v-392q0 -13 -9 -21.5t-21 -8.5h-14q-13 0 -21.5 8.5t-8.5 21.5v556q0 47 29.5 77.5t75.5 30.5h201q13 0 22 -8t9 -20z" />
    <glyph glyph-name="g" unicode="g" horiz-adv-x="515" 
d="M453 239v-347q0 -46 -32.5 -79t-78.5 -33h-79q-13 0 -21.5 7.5t-8.5 20.5v11q0 13 8.5 20.5t21.5 7.5h50q66 0 66 63v112q0 7 -4 13t-10 6q-13 0 -46 -15q-67 -29 -109 -29h-15q-59 0 -94 31.5t-35 86.5v244q0 52 34 83q35 32 79 32h226q13 0 21.5 -7.5t8.5 -20.5v-11
q0 -13 -8.5 -20.5t-21.5 -7.5h-211q-22 0 -38 -16t-16 -40v-224q0 -25 17.5 -42.5t42.5 -17.5h119q25 0 42.5 17.5t17.5 42.5v112q0 13 8.5 21.5t21.5 8.5h14q12 0 21 -8.5t9 -21.5z" />
    <glyph glyph-name="h" unicode="h" horiz-adv-x="523" 
d="M457 444v-414q0 -13 -9 -21.5t-21 -8.5h-14q-13 0 -21.5 8.5t-8.5 21.5v172h-243v-172q0 -13 -9 -21.5t-21 -8.5h-14q-13 0 -21.5 8.5t-8.5 21.5v414q0 13 8.5 21.5t21.5 8.5h14q12 0 21 -8.5t9 -21.5v-175h243v175q0 13 8.5 21.5t21.5 8.5h14q12 0 21 -8.5t9 -21.5z" />
    <glyph glyph-name="i" unicode="i" horiz-adv-x="370" 
d="M309 39v-11q0 -13 -8.5 -20.5t-21.5 -7.5h-188q-13 0 -21.5 7.5t-8.5 20.5v11q0 12 8.5 20t21.5 8h57v340h-52q-13 0 -21.5 7.5t-8.5 20.5v11q0 12 8.5 20t21.5 8h178q13 0 21.5 -8t8.5 -20v-11q0 -13 -8.5 -20.5t-21.5 -7.5h-52v-340h57q13 0 21.5 -8t8.5 -20z" />
    <glyph glyph-name="j" unicode="j" horiz-adv-x="258" 
d="M166 646v-55q0 -13 -9 -21.5t-21 -8.5h-14q-13 0 -21.5 8.5t-8.5 21.5v55q0 13 8.5 21.5t21.5 8.5h14q12 0 21 -8.5t9 -21.5zM166 444v-634q0 -13 -9 -21.5t-21 -8.5h-14q-13 0 -21.5 8.5t-8.5 21.5v634q0 13 8.5 21.5t21.5 8.5h14q12 0 21 -8.5t9 -21.5z" />
    <glyph glyph-name="k" unicode="k" horiz-adv-x="439" 
d="M416 37q0 -12 -11 -23l-13 -11q-8 -6 -19 -6q-9 0 -20 11l-213 185v-163q0 -13 -9 -21.5t-21 -8.5h-14q-13 0 -21.5 8.5t-8.5 21.5v414q0 13 8.5 21.5t21.5 8.5h14q12 0 21 -8.5t9 -21.5v-161l212 187q7 7 18 7q12 0 23 -12l9 -11q7 -7 7 -17q0 -14 -13 -24l-197 -174
l210 -183q7 -7 7 -19z" />
    <glyph glyph-name="l" unicode="l" horiz-adv-x="410" 
d="M407 39v-11q0 -13 -8.5 -20.5t-21.5 -7.5h-311v444q0 13 8.5 21.5t21.5 8.5h14q12 0 21 -8.5t9 -21.5v-377h237q13 0 21.5 -7.5t8.5 -20.5z" />
    <glyph glyph-name="m" unicode="m" horiz-adv-x="746" 
d="M680 362v-332q0 -13 -9 -21.5t-21 -8.5h-14q-13 0 -21.5 8.5t-8.5 21.5v316q0 26 -18.5 43.5t-40.5 17.5h-78q-23 0 -41 -17.5t-18 -43.5v-316q0 -13 -9 -21.5t-21 -8.5h-14q-13 0 -21.5 8.5t-8.5 21.5v316q0 24 -16.5 42.5t-40.5 18.5h-79q-23 0 -41.5 -16.5
t-18.5 -44.5v-316q0 -13 -9 -21.5t-21 -8.5h-14q-13 0 -21.5 8.5t-8.5 21.5v419q0 25 23 25h15q14 0 22 -14l10 -18q6 -11 15 -11t33 15q51 31 89 31h17q44 0 86 -31q22 -16 35 -16q15 0 49 19q43 28 82 28h17q54 0 87 -35q34 -34 34 -80z" />
    <glyph glyph-name="n" unicode="n" 
d="M453 359v-329q0 -13 -9 -21.5t-21 -8.5h-14q-13 0 -21.5 8.5t-8.5 21.5v317q0 25 -17.5 42.5t-42.5 17.5h-119q-25 0 -42.5 -17.5t-17.5 -42.5v-317q0 -13 -9 -21.5t-21 -8.5h-14q-13 0 -21.5 8.5t-8.5 21.5v419q0 25 23 25h14q16 0 23 -14l10 -18q6 -11 17 -11
q15 0 48 16q63 30 108 30h15q59 0 94 -31.5t35 -86.5z" />
    <glyph glyph-name="o" unicode="o" horiz-adv-x="517" 
d="M451 364v-252q0 -46 -32.5 -79t-78.5 -33h-163q-46 0 -78.5 33t-32.5 79v252q0 47 34 78q35 32 81 32h155q46 0 81 -32q34 -31 34 -78zM377 122v230q0 23 -16 39t-39 16h-127q-23 0 -39 -16t-16 -39v-230q0 -23 16 -39t38 -16h128q23 0 39 16t16 39z" />
    <glyph glyph-name="p" unicode="p" 
d="M453 359v-244q0 -55 -35 -86.5t-94 -31.5h-15q-48 0 -108 29q-35 15 -47 15q-6 0 -10 -6t-4 -13v-212q0 -13 -9 -21.5t-21 -8.5h-14q-13 0 -21.5 8.5t-8.5 21.5v639q0 10 6.5 17.5t15.5 7.5h16q14 0 22 -13l11 -21q5 -9 17 -9q14 0 47 16q62 30 108 30h15q59 0 94 -31.5
t35 -86.5zM379 127v220q0 25 -17.5 42.5t-42.5 17.5h-119q-25 0 -42.5 -17.5t-17.5 -42.5v-220q0 -25 17.5 -42.5t42.5 -17.5h119q25 0 42.5 17.5t17.5 42.5z" />
    <glyph glyph-name="q" unicode="q" 
d="M453 449v-639q0 -13 -8.5 -21.5t-21.5 -8.5h-14q-12 0 -21 8.5t-9 21.5v212q0 7 -4 13t-10 6q-13 0 -46 -15q-67 -29 -109 -29h-15q-59 0 -94 31.5t-35 86.5v244q0 55 35 86.5t94 31.5h15q46 0 109 -30q32 -16 46 -16q13 0 17 9l11 21q8 13 22 13h16q9 0 15.5 -7.5
t6.5 -17.5zM379 127v220q0 25 -17.5 42.5t-42.5 17.5h-119q-25 0 -42.5 -17.5t-17.5 -42.5v-220q0 -25 17.5 -42.5t42.5 -17.5h119q25 0 42.5 17.5t17.5 42.5z" />
    <glyph glyph-name="r" unicode="r" horiz-adv-x="390" 
d="M402 446v-11q0 -13 -8.5 -20.5t-21.5 -7.5h-163q-29 0 -46.5 -17.5t-17.5 -46.5v-313q0 -13 -9 -21.5t-21 -8.5h-14q-13 0 -21.5 8.5t-8.5 21.5v420q0 11 7 17.5t16 6.5h15q14 0 22 -14l10 -18v-1q7 -10 17 -10q11 0 32 15q40 28 77 28h105q13 0 21.5 -7.5t8.5 -20.5z
" />
    <glyph glyph-name="s" unicode="s" horiz-adv-x="480" 
d="M430 179v-67q0 -52 -28 -82t-75 -30h-247q-13 0 -21.5 7.5t-8.5 20.5v11q0 13 8.5 20.5t21.5 7.5h233q22 0 32.5 16.5t10.5 40.5v40q0 43 -43 43h-164q-37 0 -68 29q-30 28 -30 72v62q0 36 31 70t83 34h197q13 0 22 -8t9 -20v-11q0 -12 -8.5 -20t-21.5 -8h-181
q-27 0 -42 -14t-15 -37v-37q0 -20 15.5 -35t39.5 -15h161q39 0 64 -24t25 -66z" />
    <glyph glyph-name="t" unicode="t" horiz-adv-x="428" 
d="M413 446v-11q0 -12 -8.5 -20t-21.5 -8h-132v-377q0 -13 -9 -21.5t-21 -8.5h-14q-13 0 -21.5 8.5t-8.5 21.5v377h-131q-13 0 -22 8t-9 20v11q0 12 9 20t21 8h337q13 0 22 -8t9 -20z" />
    <glyph glyph-name="u" unicode="u" 
d="M453 444v-420q0 -10 -6 -17t-15 -7h-17q-14 0 -22 14l-10 18q-5 9 -18 9t-46 -15q-60 -29 -109 -29h-15q-55 0 -92 32.5t-37 85.5v329q0 13 8.5 21.5t21.5 8.5h14q12 0 21 -8.5t9 -21.5v-317q0 -25 17.5 -42.5t42.5 -17.5h119q25 0 42.5 17.5t17.5 42.5v317
q0 13 8.5 21.5t21.5 8.5h14q12 0 21 -8.5t9 -21.5z" />
    <glyph glyph-name="v" unicode="v" horiz-adv-x="487" 
d="M454 430l-151 -391q-6 -16 -20 -27.5t-26 -11.5h-27q-12 0 -26 11.5t-20 27.5l-151 391q-2 8 -2 13q0 18 19 25l14 6q8 3 15 3q17 0 24 -19l104 -283q24 -65 35 -110h3q11 45 35 110l104 283q7 19 24 19q8 0 15 -3l14 -6q19 -7 19 -25q0 -5 -2 -13z" />
    <glyph glyph-name="w" unicode="w" horiz-adv-x="669" 
d="M629 437l-93 -395q-4 -18 -17.5 -30t-30.5 -12h-25q-15 0 -29 10.5t-19 26.5l-80 243l-81 -243q-5 -16 -19 -26.5t-29 -10.5h-25q-17 0 -30.5 12t-17.5 30l-93 395q0 2 -1 5v5q0 19 20 25l16 4q3 0 5 1h4q22 0 28 -26l62 -277q2 -8 4 -17t4.5 -22t4.5 -21q3 -11 10 -49h2
q1 4 5 18t9.5 32t11.5 36l76 235l-18 54q0 2 -1 4v3q0 16 16 23l13 5q6 2 9 2q18 0 24 -19l99 -307q1 -3 5.5 -18t8.5 -27q9 -27 13 -41h2q8 37 10 49q2 8 4.5 21t4.5 22t4 17l62 277q6 26 28 26h5q2 -1 4 -1l16 -4q20 -6 20 -25v-5q-1 -3 -1 -5z" />
    <glyph glyph-name="x" unicode="x" horiz-adv-x="483" 
d="M287 243l160 -188q7 -7 7 -19q0 -10 -8 -18l-13 -13q-7 -7 -20 -7q-14 0 -23 11l-149 178l-148 -178q-9 -11 -23 -11q-13 0 -20 7l-13 13q-8 8 -8 18q0 12 7 19l159 188l-149 176q-7 7 -7 19q0 10 8 18l13 13q7 7 20 7q14 0 23 -11l138 -166l139 166q9 11 23 11
q13 0 20 -7l13 -13q8 -8 8 -18q0 -12 -7 -19z" />
    <glyph glyph-name="y" unicode="y" horiz-adv-x="422" 
d="M405 439q0 -11 -5 -18l-152 -209v-182q0 -13 -8.5 -21.5t-21.5 -8.5h-14q-13 0 -21.5 8.5t-8.5 21.5v182l-152 209q-5 7 -5 18q0 17 12 24l12 8q9 6 18 6q15 0 24 -12l128 -179l129 179q9 12 23 12q9 0 18 -6l12 -8q12 -7 12 -24z" />
    <glyph glyph-name="z" unicode="z" horiz-adv-x="470" 
d="M444 39v-11q0 -13 -8.5 -20.5t-21.5 -7.5h-346q-11 0 -20 8t-9 19v16q0 14 14 31l277 333h-247q-12 0 -21 8t-9 20v11q0 12 9 20t21 8h316q13 0 21 -8t8 -19v-11q0 -12 -18 -38l-276 -331h280q13 0 21.5 -7.5t8.5 -20.5z" />
    <glyph glyph-name="braceleft" unicode="{" horiz-adv-x="364" 
d="M319 -191q0 -12 -4 -16l-7 -7q-6 -6 -16 -6t-14 4l-84 60q-27 20 -27 60v298l-92 24q-20 6 -20 18v15q0 13 20 19l92 24v250q0 40 27 60l84 60q4 4 14 4t16 -6l7 -7q4 -4 4 -16q0 -8 -7 -15l-71 -70v-668l71 -70q7 -7 7 -15z" />
    <glyph glyph-name="bar" unicode="|" horiz-adv-x="219" 
d="M139 730v-960q0 -8 -6 -14t-14 -6h-19q-8 0 -14 6t-6 14v960q0 8 6 14t14 6h19q8 0 14 -6t6 -14z" />
    <glyph glyph-name="braceright" unicode="}" horiz-adv-x="364" 
d="M309 259v-15q0 -12 -20 -18l-92 -24v-298q0 -40 -27 -60l-84 -60q-4 -4 -14 -4t-16 6l-7 7q-4 4 -4 16q0 8 7 15l71 70v668l-71 70q-7 7 -7 15q0 12 4 16l7 7q6 6 16 6t14 -4l84 -60q27 -20 27 -60v-250l92 -24q20 -6 20 -19z" />
    <glyph glyph-name="asciitilde" unicode="~" horiz-adv-x="562" 
d="M534 300q0 -18 -14 -29l-97 -69q-32 -24 -71 -24q-37 0 -63 20l-54 45q-13 10 -22 10q-7 0 -18 -6l-104 -62q-14 -8 -28 -8q-16 0 -25.5 8.5t-9.5 21.5q0 18 14 29l97 69q32 24 71 24q37 0 63 -20l54 -45q13 -10 22 -10q7 0 18 6l104 62q14 8 28 8q16 0 25.5 -8.5
t9.5 -21.5z" />
    <glyph glyph-name="exclamdown" unicode="&#xa1;" horiz-adv-x="248" 
d="M87 30v223q0 13 9 21.5t21 8.5h14q13 0 21.5 -8.5t8.5 -21.5v-223q0 -13 -8.5 -21.5t-21.5 -8.5h-14q-12 0 -21 8.5t-9 21.5zM87 381v63q0 13 9 21.5t21 8.5h14q13 0 21.5 -8.5t8.5 -21.5v-63q0 -13 -8.5 -21.5t-21.5 -8.5h-14q-12 0 -21 8.5t-9 21.5z" />
    <glyph glyph-name="cent" unicode="&#xa2;" horiz-adv-x="452" 
d="M427 39v-11q0 -13 -8.5 -20.5t-21.5 -7.5h-96v-80q0 -9 -6.5 -15.5t-15.5 -6.5h-18q-9 0 -15.5 6.5t-6.5 15.5v80h-63q-47 0 -78 34q-32 35 -32 80v249q0 47 34 78q35 33 80 33h59v77q0 9 6.5 15.5t15.5 6.5h18q9 0 15.5 -6.5t6.5 -15.5v-77h83q13 0 21.5 -7.5t8.5 -20.5
v-11q0 -13 -8.5 -20.5t-21.5 -7.5h-178q-66 0 -66 -65v-213q0 -62 67 -62h190q13 0 21.5 -7.5t8.5 -20.5z" />
    <glyph glyph-name="sterling" unicode="&#xa3;" horiz-adv-x="470" 
d="M463 39v-11q0 -13 -8.5 -20.5t-21.5 -7.5h-383q-13 0 -21.5 7.5t-8.5 20.5v11q0 13 8.5 20.5t21.5 7.5h62v135h-42q-13 0 -21.5 7.5t-8.5 20.5v11q0 13 8.5 20.5t21.5 7.5h42v175q0 13 8.5 21.5t21.5 8.5h14q12 0 21 -8.5t9 -21.5v-175h150q13 0 21.5 -8t8.5 -20v-11
q0 -12 -8.5 -20t-21.5 -8h-150v-135h247q13 0 21.5 -7.5t8.5 -20.5z" />
    <glyph glyph-name="currency" unicode="&#xa4;" horiz-adv-x="518" 
d="M501 39v-11q0 -12 -8.5 -20t-21.5 -8h-219q-46 0 -80 32q-33 33 -33 79v24h-75q-13 0 -22 8t-9 20v11q0 12 9 20t21 8h76v67h-75q-13 0 -22 8t-9 20v11q0 12 9 20t21 8h76v26q0 48 33 79q34 33 80 33h207q13 0 21.5 -7.5t8.5 -20.5v-11q0 -13 -8.5 -20.5t-21.5 -7.5h-185
q-32 0 -46.5 -10.5t-14.5 -35.5v-25h142q13 0 22 -8t9 -20v-11q0 -12 -8.5 -20t-21.5 -8h-143v-67h142q13 0 22 -8t9 -20v-11q0 -12 -8.5 -20t-21.5 -8h-143v-5q0 -28 15.5 -45.5t41.5 -17.5h200q13 0 22 -8t9 -20z" />
    <glyph glyph-name="yen" unicode="&#xa5;" horiz-adv-x="432" 
d="M410 439q0 -11 -5 -18l-152 -209v-10h88q13 0 21.5 -7.5t8.5 -20.5v-11q0 -13 -8.5 -20.5t-21.5 -7.5h-88v-105q0 -13 -8.5 -21.5t-21.5 -8.5h-14q-13 0 -21.5 8.5t-8.5 21.5v105h-87q-13 0 -21.5 7.5t-8.5 20.5v11q0 13 8.5 20.5t21.5 7.5h87v10l-152 209q-5 7 -5 18
q0 15 12 24l12 8q9 6 18 6q15 0 24 -12l128 -179l129 179q9 12 23 12q9 0 18 -6l12 -8q12 -9 12 -24z" />
    <glyph glyph-name="brokenbar" unicode="&#xa6;" horiz-adv-x="196" 
d="M135 646v-321q0 -13 -9 -21.5t-21 -8.5h-14q-13 0 -21.5 8.5t-8.5 21.5v321q0 13 8.5 21.5t21.5 8.5h14q12 0 21 -8.5t9 -21.5zM135 146v-336q0 -13 -9 -21.5t-21 -8.5h-14q-13 0 -21.5 8.5t-8.5 21.5v336q0 13 8.5 21.5t21.5 8.5h14q12 0 21 -8.5t9 -21.5z" />
    <glyph glyph-name="section" unicode="&#xa7;" horiz-adv-x="500" 
d="M439 -43v-61q0 -48 -31.5 -82t-85.5 -34h-231q-13 0 -21.5 7.5t-8.5 20.5v11q0 13 8.5 20.5t21.5 7.5h213q24 0 42.5 18.5t18.5 41.5v10q0 17 -7.5 27.5t-28.5 22.5l-215 125q-47 26 -47 77v18q0 40 28 68l-8 9q-20 20 -20 57v46q0 38 32 73q31 34 81 34h205
q13 0 21.5 -7.5t8.5 -20.5v-11q0 -13 -8.5 -20.5t-21.5 -7.5h-187q-24 0 -40.5 -16t-16.5 -40v-11q0 -18 5.5 -27.5t21.5 -19.5l215 -125q56 -33 56 -82v-15q0 -39 -20 -61q20 -20 20 -53zM365 76q0 23 -30 41l-164 96q-30 -7 -30 -34q0 -25 28 -41l175 -102q21 21 21 40z
" />
    <glyph glyph-name="dieresis" unicode="&#xa8;" horiz-adv-x="264" 
d="M244 656v-78q0 -8 -6 -14t-14 -6h-27q-8 0 -14 6t-6 14v78q0 8 6 14t14 6h27q8 0 14 -6t6 -14zM87 656v-78q0 -8 -6 -14t-14 -6h-27q-8 0 -14 6t-6 14v78q0 8 6 14t14 6h27q8 0 14 -6t6 -14z" />
    <glyph glyph-name="copyright" unicode="&#xa9;" horiz-adv-x="645" 
d="M584 391v-308q0 -35 -24.5 -59t-59.5 -24h-355q-35 0 -59.5 24.5t-24.5 58.5v308q0 34 24.5 58.5t59.5 24.5h355q35 0 59.5 -24t24.5 -59zM530 99v276q0 20 -14.5 34.5t-34.5 14.5h-316q-21 0 -35.5 -14.5t-14.5 -34.5v-276q0 -21 14.5 -35t35.5 -14h316q20 0 34.5 14
t14.5 35zM441 159v-12q0 -10 -8 -17.5t-19 -7.5h-148q-30 0 -51 21t-21 51v90q0 30 21 51t51 21h135q11 0 19 -8t8 -17v-11q0 -10 -8 -18t-19 -8h-108q-13 0 -23 -10t-10 -23v-44q0 -13 10 -23t23 -10h121q11 0 19 -7.5t8 -17.5z" />
    <glyph glyph-name="ordfeminine" unicode="&#xaa;" horiz-adv-x="402" 
d="M352 388v-264q0 -20 -19 -20h-11q-9 0 -17 11l-8 14q-4 7 -14 7q-11 0 -36 -12q-54 -22 -85 -22h-11q-47 0 -74 25.5t-27 66.5v53q0 41 27 66.5t74 25.5h11q37 0 85 -23q25 -13 36 -13t11 14v55q0 50 -51 50h-138q-10 0 -17 6t-7 16v8q0 22 24 22h159q36 0 62 -26t26 -60
zM294 197v48q0 16 -12 28t-28 12h-106q-16 0 -28 -12t-12 -28v-48q0 -16 12 -28t28 -12h106q16 0 28 12t12 28z" />
    <glyph glyph-name="guillemotleft" unicode="&#xab;" horiz-adv-x="624" 
d="M331 74q0 -12 -9 -19l-7 -6q-11 -9 -17 -9q-10 0 -17 6l-219 166q-20 13 -20 31v21q0 17 20 32l219 165q7 6 17 6q6 0 17 -9l7 -6q9 -8 9 -19t-9 -18l-194 -161l194 -162q9 -8 9 -18zM584 74q0 -12 -9 -19l-7 -6q-10 -9 -17 -9q-9 0 -17 6l-219 166q-20 13 -20 31v21
q0 17 20 32l219 165q8 6 17 6q7 0 17 -9l7 -6q9 -7 9 -19q0 -11 -9 -18l-194 -161l194 -162q9 -8 9 -18z" />
    <glyph glyph-name="registered" unicode="&#xae;" horiz-adv-x="502" 
d="M441 425v-288q0 -20 -15 -34t-35 -14h-280q-20 0 -35 14t-15 34v288q0 20 15 34.5t35 14.5h280q20 0 35 -14.5t15 -34.5zM401 150v263q0 9 -6.5 16t-16.5 7h-254q-10 0 -16.5 -7t-6.5 -16v-263q0 -10 6.5 -16.5t16.5 -6.5h254q10 0 16.5 6.5t6.5 16.5zM306 259l41 -60
q2 -4 2 -6q0 -9 -6 -13l-9 -6q-4 -2 -9 -2q-9 0 -17 11l-47 68h-49v-59q0 -8 -6.5 -13.5t-14.5 -5.5h-6q-7 0 -13 6t-6 13v178q0 17 16 17h8q8 0 12 -9l4 -9q1 -7 9 -7q5 0 16 9q25 18 45 18h5q23 0 38 -16t15 -40v-23q0 -35 -28 -51zM288 313v11q0 8 -6 14t-14 6h-34
q-22 0 -22 -21v-30h56q8 0 14 6t6 14z" />
    <glyph glyph-name="macron" unicode="&#xaf;" horiz-adv-x="267" 
d="M243 649v-6q0 -11 -7.5 -18.5t-18.5 -7.5h-167q-10 0 -18 7.5t-8 18.5v6q0 11 8 19t18 8h167q11 0 18.5 -8t7.5 -19z" />
    <glyph glyph-name="degree" unicode="&#xb0;" horiz-adv-x="337" 
d="M292 404v-108q0 -29 -20.5 -49t-49.5 -20h-107q-29 0 -49.5 20t-20.5 49v108q0 29 21 49.5t49 20.5h107q29 0 49.5 -20.5t20.5 -49.5zM233 309v82q0 10 -7 17t-18 7h-79q-10 0 -17.5 -7t-7.5 -17v-82q0 -10 7 -16.5t18 -6.5h79q11 0 18 6.5t7 16.5z" />
    <glyph glyph-name="plusminus" unicode="&#xb1;" horiz-adv-x="500" 
d="M455 260v-11q0 -12 -8.5 -20t-21.5 -8h-139v-81q0 -13 -9 -21.5t-21 -8.5h-14q-13 0 -21.5 8.5t-8.5 21.5v81h-137q-12 0 -21 8t-9 20v11q0 12 9 20t21 8h137v81q0 13 8.5 21.5t21.5 8.5h14q12 0 21 -8.5t9 -21.5v-81h139q13 0 21.5 -8t8.5 -20zM455 39v-11
q0 -12 -8.5 -20t-21.5 -8h-350q-12 0 -21 8t-9 20v11q0 12 9 20t21 8h350q13 0 21.5 -8t8.5 -20z" />
    <glyph glyph-name="twosuperior" unicode="&#xb2;" horiz-adv-x="349" 
d="M307 236v-5q0 -12 -7.5 -19t-19.5 -7h-218v97q0 30 19.5 48.5t50.5 18.5h86q8 0 14 6t6 14v10q0 8 -6 14t-14 6h-119q-11 0 -19 6.5t-8 16.5v8q0 11 8 17.5t18 6.5h134q27 0 46 -19t19 -46v-30q0 -27 -19 -46t-46 -19h-85q-11 0 -18.5 -7t-7.5 -17v-30h159q12 0 19.5 -7
t7.5 -17z" />
    <glyph glyph-name="threesuperior" unicode="&#xb3;" horiz-adv-x="349" 
d="M277 295v-22q0 -28 -21 -48t-52 -20h-105q-11 0 -19 7.5t-8 17.5v6q0 9 7.5 16.5t19.5 7.5h95q24 0 24 26v6q0 10 -7 16t-17 6h-63q-9 0 -16 8t-7 17v6q0 9 7 16.5t18 7.5h60q20 0 20 20v6q0 24 -22 24h-85q-10 0 -17.5 7.5t-7.5 16.5v7q0 9 7 16.5t18 7.5h100
q28 0 47 -20t19 -43v-25q0 -16 -10 -28.5t-27 -16.5q18 -3 30 -17t12 -29z" />
    <glyph glyph-name="acute" unicode="&#xb4;" horiz-adv-x="288" 
d="M252 632q0 -17 -17 -25l-169 -72q-2 0 -3 -1h-4q-14 0 -17 6l-6 12q0 1 -1 2v3q0 10 10 17l154 101q5 4 14 4q18 0 27 -16l8 -15q4 -7 4 -16z" />
    <glyph glyph-name="mu" unicode="&#xb5;" 
d="M453 444v-420q0 -10 -6 -17t-15 -7h-17q-14 0 -22 14l-10 18q-5 9 -18 9t-46 -15q-60 -29 -109 -29h-15q-32 0 -55 10v-197q0 -12 -9 -21t-21 -9h-14q-13 0 -21.5 9t-8.5 21v634q0 13 8.5 21.5t21.5 8.5h14q12 0 21 -8.5t9 -21.5v-317q0 -25 17.5 -42.5t42.5 -17.5h119
q25 0 42.5 17.5t17.5 42.5v317q0 13 8.5 21.5t21.5 8.5h14q12 0 21 -8.5t9 -21.5z" />
    <glyph glyph-name="paragraph" unicode="&#xb6;" horiz-adv-x="674" 
d="M649 446v-11q0 -13 -8.5 -20.5t-21.5 -7.5h-68v-597q0 -13 -9 -21.5t-21 -8.5h-14q-13 0 -21.5 8.5t-8.5 21.5v597h-86v-597q0 -13 -9 -21.5t-21 -8.5h-14q-13 0 -21.5 8.5t-8.5 21.5v325h-142q-43 0 -78.5 35t-35.5 80v112q0 49 32 80.5t80 31.5h446q13 0 21.5 -7.5
t8.5 -20.5zM200 202h117v205h-121q-61 0 -61 -66v-73q0 -31 17 -48.5t48 -17.5z" />
    <glyph glyph-name="periodcentered" unicode="&#xb7;" horiz-adv-x="232" 
d="M163 296v-89q0 -10 -10 -17.5t-23 -7.5h-30q-13 0 -22 7.5t-9 19.5v87q0 12 8.5 20.5t21.5 8.5h34q13 0 21.5 -8.5t8.5 -20.5z" />
    <glyph glyph-name="cedilla" unicode="&#xb8;" horiz-adv-x="267" 
d="M228 -108v-54q0 -24 -17.5 -41t-43.5 -17h-106q-10 0 -16 7t-6 17v7q0 8 7 14.5t15 6.5h86q11 0 18.5 7t7.5 18v13q0 28 -28 28h-68v106h55v-54h34q26 0 44 -17t18 -41z" />
    <glyph glyph-name="onesuperior" unicode="&#xb9;" horiz-adv-x="349" 
d="M224 459v-228q0 -10 -7 -18t-18 -8h-10q-11 0 -17.5 8t-6.5 18v140l-48 -26q-4 -2 -11 -2q-6 0 -12 5t-6 12q0 8 6 14l82 84q13 16 24 16h9q6 0 10.5 -5t4.5 -10z" />
    <glyph glyph-name="ordmasculine" unicode="&#xba;" horiz-adv-x="400" 
d="M350 388v-196q0 -36 -25.5 -62t-60.5 -26h-127q-36 0 -61.5 26t-25.5 62v196q0 36 26.5 61t63.5 25h121q36 0 62.5 -25t26.5 -61zM293 200v179q0 17 -13 30t-30 13h-99q-18 0 -30.5 -12.5t-12.5 -30.5v-179q0 -19 12 -31t30 -12h100q18 0 30.5 12.5t12.5 30.5z" />
    <glyph glyph-name="guillemotright" unicode="&#xbb;" horiz-adv-x="624" 
d="M329 264v-21q0 -18 -20 -31l-219 -166q-8 -6 -17 -6q-7 0 -17 9l-7 6q-9 7 -9 19q0 10 9 18l194 162l-194 161q-9 7 -9 18t9 19l7 6q10 9 17 9q9 0 17 -6l219 -165q20 -15 20 -32zM582 264v-21q0 -18 -20 -31l-219 -166q-7 -6 -17 -6q-6 0 -17 9l-7 6q-9 7 -9 19
q0 10 9 18l194 162l-194 161q-9 7 -9 18t9 19l7 6q11 9 17 9q10 0 17 -6l219 -165q20 -15 20 -32z" />
    <glyph glyph-name="onequarter" unicode="&#xbc;" horiz-adv-x="740" 
d="M690 86v-8q0 -9 -7 -16t-18 -7h-45v-31q0 -9 -8 -16.5t-18 -7.5h-8q-10 0 -17.5 7t-7.5 17v31h-126q-14 0 -24 9t-10 19v10q0 13 14 30l113 129q14 17 32 17h30q12 0 21 -7.5t9 -21.5v-130h45q10 0 17.5 -7.5t7.5 -16.5zM492 456q0 -5 -2 -9l-259 -446q-5 -9 -14 -9
q-6 0 -10 2l-14 8q-9 4 -9 15q0 6 2 10l259 446q5 9 14 9q6 0 10 -2l14 -8q9 -6 9 -16zM186 459v-228q0 -10 -7 -18t-18 -8h-10q-11 0 -17.5 8t-6.5 18v140l-48 -26q-4 -2 -11 -2q-6 0 -12 5t-6 12q0 8 6 14l82 84q13 16 24 16h9q6 0 10.5 -5t4.5 -10zM477 110h84v96z" />
    <glyph glyph-name="onehalf" unicode="&#xbd;" horiz-adv-x="740" 
d="M690 31v-5q0 -12 -7.5 -19t-19.5 -7h-218v97q0 30 19.5 48.5t50.5 18.5h86q8 0 14 6t6 14v10q0 8 -6 14t-14 6h-119q-11 0 -19 6.5t-8 16.5v8q0 11 8 17.5t18 6.5h134q27 0 46 -19t19 -46v-30q0 -27 -19 -46t-46 -19h-85q-12 0 -19 -7.5t-7 -16.5v-30h159q12 0 19.5 -7
t7.5 -17zM475 456q0 -5 -2 -9l-259 -446q-4 -9 -14 -9q-6 0 -10 2l-14 8q-9 4 -9 15q0 6 2 10l259 446q4 9 14 9q6 0 10 -2l14 -8q9 -6 9 -16zM186 459v-228q0 -10 -7 -18t-18 -8h-10q-11 0 -17.5 8t-6.5 18v140l-48 -26q-4 -2 -11 -2q-6 0 -12 5t-6 12q0 8 6 14l82 84
q13 16 24 16h9q6 0 10.5 -5t4.5 -10z" />
    <glyph glyph-name="threequarters" unicode="&#xbe;" horiz-adv-x="740" 
d="M690 86v-8q0 -9 -7 -16t-18 -7h-45v-31q0 -9 -8 -16.5t-18 -7.5h-8q-10 0 -17.5 7t-7.5 17v31h-126q-14 0 -24 9t-10 19v10q0 13 14 30l113 129q14 17 32 17h30q12 0 21 -7.5t9 -21.5v-130h45q10 0 17.5 -7.5t7.5 -16.5zM513 456q0 -5 -2 -9l-259 -446q-4 -9 -14 -9
q-6 0 -10 2l-14 8q-9 4 -9 15q0 6 2 10l259 446q4 9 14 9q6 0 10 -2l14 -8q9 -6 9 -16zM255 295v-22q0 -28 -21 -48t-52 -20h-105q-11 0 -19 7.5t-8 17.5v6q0 9 7.5 16.5t19.5 7.5h95q24 0 24 26v6q0 10 -7 16t-17 6h-63q-9 0 -16 8t-7 17v6q0 9 7 16.5t18 7.5h60
q20 0 20 20v6q0 24 -22 24h-85q-10 0 -17.5 7.5t-7.5 16.5v7q0 9 7 16.5t18 7.5h100q28 0 47 -20t19 -43v-25q0 -16 -10 -28.5t-27 -16.5q18 -3 30 -17t12 -29zM477 110h84v96z" />
    <glyph glyph-name="questiondown" unicode="&#xbf;" horiz-adv-x="416" 
d="M48 100v23q0 41 29.5 70.5t70.5 29.5h82v30q0 13 9 21.5t21 8.5h14q13 0 21.5 -8.5t8.5 -21.5v-64q0 -33 -34 -33h-106q-18 0 -30 -10t-12 -27v-15q0 -17 12 -27t30 -10h182q12 0 21 -8.5t9 -20.5v-10q0 -12 -9 -20t-21 -8h-198q-41 0 -70.5 29.5t-29.5 70.5zM230 381v63
q0 13 9 21.5t21 8.5h14q13 0 21.5 -8.5t8.5 -21.5v-63q0 -13 -8.5 -21.5t-21.5 -8.5h-14q-12 0 -21 8.5t-9 21.5z" />
    <glyph glyph-name="Agrave" unicode="&#xc0;" horiz-adv-x="510" 
d="M359 552l-6 -12q-3 -6 -16 -6h-5q-1 1 -3 1l-169 72q-17 8 -17 25q0 9 4 16l8 15q9 16 27 16q9 0 14 -4l154 -101q10 -7 10 -17v-3q-1 -1 -1 -2zM485 28q0 -16 -18 -23l-14 -6q-6 -2 -13 -2q-16 0 -23 18l-53 127h-218l-53 -127q-7 -18 -23 -18q-7 0 -13 2l-14 6
q-18 7 -18 23q0 6 4 15l166 399q14 32 42 32h36q28 0 42 -32l166 -399q4 -9 4 -15zM174 209h162l-81 196z" />
    <glyph glyph-name="Aacute" unicode="&#xc1;" horiz-adv-x="510" 
d="M371 632q0 -17 -17 -25l-169 -72q-2 0 -3 -1h-4q-14 0 -17 6l-6 12q0 1 -1 2v3q0 10 10 17l154 101q5 4 14 4q18 0 27 -16l8 -15q4 -7 4 -16zM485 28q0 -16 -18 -23l-14 -6q-6 -2 -13 -2q-16 0 -23 18l-53 127h-218l-53 -127q-7 -18 -23 -18q-7 0 -13 2l-14 6
q-18 7 -18 23q0 6 4 15l166 399q14 32 42 32h36q28 0 42 -32l166 -399q4 -9 4 -15zM174 209h162l-81 196z" />
    <glyph glyph-name="Acircumflex" unicode="&#xc2;" horiz-adv-x="510" 
d="M409 543l-9 -9q-4 -4 -11 -4t-14 4l-120 81l-120 -81q-7 -4 -14 -4t-11 4l-9 9q-4 4 -4 11t5 12l109 100q10 10 27 10h34q17 0 27 -10l109 -100q5 -5 5 -12t-4 -11zM485 28q0 -16 -18 -23l-14 -6q-6 -2 -13 -2q-16 0 -23 18l-53 127h-218l-53 -127q-7 -18 -23 -18
q-7 0 -13 2l-14 6q-18 7 -18 23q0 6 4 15l166 399q14 32 42 32h36q28 0 42 -32l166 -399q4 -9 4 -15zM174 209h162l-81 196z" />
    <glyph glyph-name="Atilde" unicode="&#xc3;" horiz-adv-x="510" 
d="M445 655q0 -11 -11 -20l-68 -57q-20 -17 -58 -17q-37 0 -57 20l-36 36q-4 4 -9 4q-6 0 -14 -5l-79 -50q-8 -5 -17 -5q-12 0 -21 6.5t-9 17.5t11 20l68 57q23 17 57 17q36 0 55 -19l36 -36q5 -5 14 -5q4 0 12 5l79 50q11 6 17 6q30 0 30 -25zM485 28q0 -16 -18 -23l-14 -6
q-6 -2 -13 -2q-16 0 -23 18l-53 127h-218l-53 -127q-7 -18 -23 -18q-7 0 -13 2l-14 6q-18 7 -18 23q0 6 4 15l166 399q14 32 42 32h36q28 0 42 -32l166 -399q4 -9 4 -15zM174 209h162l-81 196z" />
    <glyph glyph-name="Adieresis" unicode="&#xc4;" horiz-adv-x="510" 
d="M367 656v-78q0 -8 -6 -14t-14 -6h-27q-8 0 -14 6t-6 14v78q0 8 6 14t14 6h27q8 0 14 -6t6 -14zM210 656v-78q0 -8 -6 -14t-14 -6h-27q-8 0 -14 6t-6 14v78q0 8 6 14t14 6h27q8 0 14 -6t6 -14zM485 28q0 -16 -18 -23l-14 -6q-6 -2 -13 -2q-16 0 -23 18l-53 127h-218
l-53 -127q-7 -18 -23 -18q-7 0 -13 2l-14 6q-18 7 -18 23q0 6 4 15l166 399q14 32 42 32h36q28 0 42 -32l166 -399q4 -9 4 -15zM174 209h162l-81 196z" />
    <glyph glyph-name="Aring" unicode="&#xc5;" horiz-adv-x="510" 
d="M364 616v-35q0 -23 -17.5 -41.5t-40.5 -18.5h-101q-23 0 -40.5 18.5t-17.5 41.5v35q0 24 16.5 42t39.5 18h105q23 0 39.5 -18t16.5 -42zM314 589v20q0 17 -17 17h-82q-18 0 -18 -17v-20q0 -7 5 -12.5t12 -5.5h83q17 0 17 18zM485 28q0 -16 -18 -23l-14 -6q-6 -2 -13 -2
q-16 0 -23 18l-53 127h-218l-53 -127q-7 -18 -23 -18q-7 0 -13 2l-14 6q-18 7 -18 23q0 6 4 15l166 399q14 32 42 32h36q28 0 42 -32l166 -399q4 -9 4 -15zM174 209h162l-81 196z" />
    <glyph glyph-name="AE" unicode="&#xc6;" horiz-adv-x="718" 
d="M688 39v-11q0 -13 -8.5 -20.5t-21.5 -7.5h-308q-12 0 -20 8t-8 20v114h-172l-87 -131q-9 -14 -24 -14q-9 0 -14 4l-15 8q-15 7 -15 23q0 8 4 12l265 400q20 30 51 30h329q13 0 21.5 -7.5t8.5 -20.5v-11q0 -13 -8.5 -20.5t-21.5 -7.5h-248v-138h228q13 0 21.5 -7.5
t8.5 -20.5v-11q0 -13 -8.5 -20.5t-21.5 -7.5h-228v-135h262q13 0 21.5 -7.5t8.5 -20.5zM194 209h128v193z" />
    <glyph glyph-name="Ccedilla" unicode="&#xc7;" horiz-adv-x="427" 
d="M200 -102v102h-24q-47 0 -78 34q-32 35 -32 80v249q0 47 34 78q35 33 80 33h180q13 0 21.5 -7.5t8.5 -20.5v-11q0 -13 -8.5 -20.5t-21.5 -7.5h-154q-66 0 -66 -65v-213q0 -62 67 -62h165q13 0 21.5 -7.5t8.5 -20.5v-11q0 -13 -8.5 -20.5t-21.5 -7.5h-117v-50h34
q26 0 44 -17t18 -41v-54q0 -24 -17.5 -41t-43.5 -17h-106q-10 0 -16 7t-6 17v7q0 8 7 14.5t15 6.5h86q11 0 18.5 7t7.5 18v13q0 28 -28 28h-68z" />
    <glyph glyph-name="Egrave" unicode="&#xc8;" horiz-adv-x="462" 
d="M342 552l-6 -12q-3 -6 -16 -6h-5q-1 1 -3 1l-169 72q-17 8 -17 25q0 9 4 16l8 15q9 16 27 16q9 0 14 -4l154 -101q10 -7 10 -17v-3q-1 -1 -1 -2zM432 39v-11q0 -13 -8.5 -20.5t-21.5 -7.5h-308q-12 0 -20 8t-8 20v418q0 12 8.5 20t20.5 8h293q13 0 21.5 -7.5t8.5 -20.5
v-11q0 -13 -8.5 -20.5t-21.5 -7.5h-248v-138h228q13 0 21.5 -7.5t8.5 -20.5v-11q0 -13 -8.5 -20.5t-21.5 -7.5h-228v-135h262q13 0 21.5 -7.5t8.5 -20.5z" />
    <glyph glyph-name="Eacute" unicode="&#xc9;" horiz-adv-x="462" 
d="M364 632q0 -17 -17 -25l-169 -72q-2 0 -3 -1h-4q-14 0 -17 6l-6 12q0 1 -1 2v3q0 10 10 17l154 101q5 4 14 4q18 0 27 -16l8 -15q4 -7 4 -16zM432 39v-11q0 -13 -8.5 -20.5t-21.5 -7.5h-308q-12 0 -20 8t-8 20v418q0 12 8.5 20t20.5 8h293q13 0 21.5 -7.5t8.5 -20.5v-11
q0 -13 -8.5 -20.5t-21.5 -7.5h-248v-138h228q13 0 21.5 -7.5t8.5 -20.5v-11q0 -13 -8.5 -20.5t-21.5 -7.5h-228v-135h262q13 0 21.5 -7.5t8.5 -20.5z" />
    <glyph glyph-name="Ecircumflex" unicode="&#xca;" horiz-adv-x="462" 
d="M390 543l-9 -9q-4 -4 -11 -4t-14 4l-120 81l-120 -81q-7 -4 -14 -4t-11 4l-9 9q-4 4 -4 11t5 12l109 100q10 10 27 10h34q17 0 27 -10l109 -100q5 -5 5 -12t-4 -11zM432 39v-11q0 -13 -8.5 -20.5t-21.5 -7.5h-308q-12 0 -20 8t-8 20v418q0 12 8.5 20t20.5 8h293
q13 0 21.5 -7.5t8.5 -20.5v-11q0 -13 -8.5 -20.5t-21.5 -7.5h-248v-138h228q13 0 21.5 -7.5t8.5 -20.5v-11q0 -13 -8.5 -20.5t-21.5 -7.5h-228v-135h262q13 0 21.5 -7.5t8.5 -20.5z" />
    <glyph glyph-name="Edieresis" unicode="&#xcb;" horiz-adv-x="462" 
d="M348 656v-78q0 -8 -6 -14t-14 -6h-27q-8 0 -14 6t-6 14v78q0 8 6 14t14 6h27q8 0 14 -6t6 -14zM191 656v-78q0 -8 -6 -14t-14 -6h-27q-8 0 -14 6t-6 14v78q0 8 6 14t14 6h27q8 0 14 -6t6 -14zM432 39v-11q0 -13 -8.5 -20.5t-21.5 -7.5h-308q-12 0 -20 8t-8 20v418
q0 12 8.5 20t20.5 8h293q13 0 21.5 -7.5t8.5 -20.5v-11q0 -13 -8.5 -20.5t-21.5 -7.5h-248v-138h228q13 0 21.5 -7.5t8.5 -20.5v-11q0 -13 -8.5 -20.5t-21.5 -7.5h-228v-135h262q13 0 21.5 -7.5t8.5 -20.5z" />
    <glyph glyph-name="Igrave" unicode="&#xcc;" horiz-adv-x="370" 
d="M309 39v-11q0 -13 -8.5 -20.5t-21.5 -7.5h-188q-13 0 -21.5 7.5t-8.5 20.5v11q0 12 8.5 20t21.5 8h57v340h-52q-13 0 -21.5 7.5t-8.5 20.5v11q0 12 8.5 20t21.5 8h178q13 0 21.5 -8t8.5 -20v-11q0 -13 -8.5 -20.5t-21.5 -7.5h-52v-340h57q13 0 21.5 -8t8.5 -20zM292 552
l-6 -12q-3 -6 -16 -6h-5q-1 1 -3 1l-169 72q-17 8 -17 25q0 9 4 16l8 15q9 16 27 16q9 0 14 -4l154 -101q10 -7 10 -17v-3q-1 -1 -1 -2z" />
    <glyph glyph-name="Iacute" unicode="&#xcd;" horiz-adv-x="370" 
d="M309 39v-11q0 -13 -8.5 -20.5t-21.5 -7.5h-188q-13 0 -21.5 7.5t-8.5 20.5v11q0 12 8.5 20t21.5 8h57v340h-52q-13 0 -21.5 7.5t-8.5 20.5v11q0 12 8.5 20t21.5 8h178q13 0 21.5 -8t8.5 -20v-11q0 -13 -8.5 -20.5t-21.5 -7.5h-52v-340h57q13 0 21.5 -8t8.5 -20zM293 632
q0 -17 -17 -25l-169 -72q-2 0 -3 -1h-4q-14 0 -17 6l-6 12q0 1 -1 2v3q0 10 10 17l154 101q5 4 14 4q18 0 27 -16l8 -15q4 -7 4 -16z" />
    <glyph glyph-name="Icircumflex" unicode="&#xce;" horiz-adv-x="370" 
d="M309 39v-11q0 -13 -8.5 -20.5t-21.5 -7.5h-188q-13 0 -21.5 7.5t-8.5 20.5v11q0 12 8.5 20t21.5 8h57v340h-52q-13 0 -21.5 7.5t-8.5 20.5v11q0 12 8.5 20t21.5 8h178q13 0 21.5 -8t8.5 -20v-11q0 -13 -8.5 -20.5t-21.5 -7.5h-52v-340h57q13 0 21.5 -8t8.5 -20zM339 543
l-9 -9q-4 -4 -11 -4t-14 4l-120 81l-120 -81q-7 -4 -14 -4t-11 4l-9 9q-4 4 -4 11t5 12l109 100q10 10 27 10h34q17 0 27 -10l109 -100q5 -5 5 -12t-4 -11z" />
    <glyph glyph-name="Idieresis" unicode="&#xcf;" horiz-adv-x="370" 
d="M309 39v-11q0 -13 -8.5 -20.5t-21.5 -7.5h-188q-13 0 -21.5 7.5t-8.5 20.5v11q0 12 8.5 20t21.5 8h57v340h-52q-13 0 -21.5 7.5t-8.5 20.5v11q0 12 8.5 20t21.5 8h178q13 0 21.5 -8t8.5 -20v-11q0 -13 -8.5 -20.5t-21.5 -7.5h-52v-340h57q13 0 21.5 -8t8.5 -20zM297 656
v-78q0 -8 -6 -14t-14 -6h-27q-8 0 -14 6t-6 14v78q0 8 6 14t14 6h27q8 0 14 -6t6 -14zM140 656v-78q0 -8 -6 -14t-14 -6h-27q-8 0 -14 6t-6 14v78q0 8 6 14t14 6h27q8 0 14 -6t6 -14z" />
    <glyph glyph-name="Eth" unicode="&#xd0;" horiz-adv-x="554" 
d="M488 364v-254q0 -46 -32 -78t-79 -32h-285v202h-38q-13 0 -21.5 7.5t-8.5 20.5v11q0 13 8.5 20.5t21.5 7.5h38v180q0 25 27 25h14q10 0 17 -11l12 -21q8 -11 15 -11q18 0 49 16q57 30 116 30h23q57 0 90 -30.5t33 -82.5zM414 124v228q0 23 -15.5 39t-38.5 16h-138
q-23 0 -39.5 -16t-16.5 -39v-83h124q13 0 21.5 -7.5t8.5 -20.5v-11q0 -13 -8.5 -20.5t-21.5 -7.5h-124v-135h188q23 0 41.5 17.5t18.5 39.5z" />
    <glyph glyph-name="Ntilde" unicode="&#xd1;" horiz-adv-x="509" 
d="M445 655q0 -11 -11 -20l-68 -57q-20 -17 -58 -17q-37 0 -57 20l-36 36q-4 4 -9 4q-6 0 -14 -5l-79 -50q-8 -5 -17 -5q-12 0 -21 6.5t-9 17.5t11 20l68 57q23 17 57 17q36 0 55 -19l36 -36q5 -5 14 -5q4 0 12 5l79 50q11 6 17 6q30 0 30 -25zM443 444v-414q0 -13 -9 -21.5
t-21 -8.5h-14q-13 0 -21.5 8.5t-8.5 21.5v88l-229 243v-331q0 -13 -9 -21.5t-21 -8.5h-14q-13 0 -21.5 8.5t-8.5 21.5v416q0 12 7.5 20t20.5 8h14q16 0 30 -15l231 -245v230q0 13 8.5 21.5t21.5 8.5h14q12 0 21 -8.5t9 -21.5z" />
    <glyph glyph-name="Ograve" unicode="&#xd2;" horiz-adv-x="517" 
d="M362 552l-6 -12q-3 -6 -16 -6h-5q-1 1 -3 1l-169 72q-17 8 -17 25q0 9 4 16l8 15q9 16 27 16q9 0 14 -4l154 -101q10 -7 10 -17v-3q-1 -1 -1 -2zM451 364v-252q0 -46 -32.5 -79t-78.5 -33h-163q-46 0 -78.5 33t-32.5 79v252q0 47 34 78q35 32 81 32h155q46 0 81 -32
q34 -31 34 -78zM377 122v230q0 23 -16 39t-39 16h-127q-23 0 -39 -16t-16 -39v-230q0 -23 16 -39t38 -16h128q23 0 39 16t16 39z" />
    <glyph glyph-name="Oacute" unicode="&#xd3;" horiz-adv-x="517" 
d="M367 632q0 -17 -17 -25l-169 -72q-2 0 -3 -1h-4q-14 0 -17 6l-6 12q0 1 -1 2v3q0 10 10 17l154 101q5 4 14 4q18 0 27 -16l8 -15q4 -7 4 -16zM451 364v-252q0 -46 -32.5 -79t-78.5 -33h-163q-46 0 -78.5 33t-32.5 79v252q0 47 34 78q35 32 81 32h155q46 0 81 -32
q34 -31 34 -78zM377 122v230q0 23 -16 39t-39 16h-127q-23 0 -39 -16t-16 -39v-230q0 -23 16 -39t38 -16h128q23 0 39 16t16 39z" />
    <glyph glyph-name="Ocircumflex" unicode="&#xd4;" horiz-adv-x="517" 
d="M413 543l-9 -9q-4 -4 -11 -4t-14 4l-120 81l-120 -81q-7 -4 -14 -4t-11 4l-9 9q-4 4 -4 11t5 12l109 100q10 10 27 10h34q17 0 27 -10l109 -100q5 -5 5 -12t-4 -11zM451 364v-252q0 -46 -32.5 -79t-78.5 -33h-163q-46 0 -78.5 33t-32.5 79v252q0 47 34 78q35 32 81 32
h155q46 0 81 -32q34 -31 34 -78zM377 122v230q0 23 -16 39t-39 16h-127q-23 0 -39 -16t-16 -39v-230q0 -23 16 -39t38 -16h128q23 0 39 16t16 39z" />
    <glyph glyph-name="Otilde" unicode="&#xd5;" horiz-adv-x="517" 
d="M448 655q0 -11 -11 -20l-68 -57q-20 -17 -58 -17q-37 0 -57 20l-36 36q-4 4 -9 4q-6 0 -14 -5l-79 -50q-8 -5 -17 -5q-13 0 -21.5 6.5t-8.5 17.5t11 20l68 57q23 17 57 17q36 0 55 -19l36 -36q5 -5 14 -5q4 0 12 5l79 50q10 6 17 6q30 0 30 -25zM451 364v-252
q0 -46 -32.5 -79t-78.5 -33h-163q-46 0 -78.5 33t-32.5 79v252q0 47 34 78q35 32 81 32h155q46 0 81 -32q34 -31 34 -78zM377 122v230q0 23 -16 39t-39 16h-127q-23 0 -39 -16t-16 -39v-230q0 -23 16 -39t38 -16h128q23 0 39 16t16 39z" />
    <glyph glyph-name="Odieresis" unicode="&#xd6;" horiz-adv-x="517" 
d="M371 656v-78q0 -8 -6 -14t-14 -6h-27q-8 0 -14 6t-6 14v78q0 8 6 14t14 6h27q8 0 14 -6t6 -14zM214 656v-78q0 -8 -6 -14t-14 -6h-27q-8 0 -14 6t-6 14v78q0 8 6 14t14 6h27q8 0 14 -6t6 -14zM451 364v-252q0 -46 -32.5 -79t-78.5 -33h-163q-46 0 -78.5 33t-32.5 79v252
q0 47 34 78q35 32 81 32h155q46 0 81 -32q34 -31 34 -78zM377 122v230q0 23 -16 39t-39 16h-127q-23 0 -39 -16t-16 -39v-230q0 -23 16 -39t38 -16h128q23 0 39 16t16 39z" />
    <glyph glyph-name="multiply" unicode="&#xd7;" horiz-adv-x="500" 
d="M426 119q0 -13 -8 -21l-13 -13q-8 -8 -19 -8q-13 0 -21 8l-115 116l-115 -116q-8 -8 -21 -8q-11 0 -19 8l-13 13q-8 8 -8 20t8 20l115 116l-115 115q-8 8 -8 19q0 13 8 21l13 13q8 8 19 8q13 0 21 -8l115 -116l115 116q8 8 21 8q11 0 19 -8l13 -13q8 -8 8 -20t-8 -20
l-115 -115l115 -116q8 -8 8 -19z" />
    <glyph glyph-name="Oslash" unicode="&#xd8;" horiz-adv-x="517" 
d="M451 364v-252q0 -46 -32.5 -79t-78.5 -33h-160l-26 -58q-4 -12 -18 -12q-2 0 -8 2l-13 6q-11 6 -11 18v4q1 2 1 4l21 48q-27 14 -43.5 41t-16.5 59v252q0 47 34 78q35 32 81 32h151l20 46q4 12 19 12q2 0 4 -1q1 -1 4 -1l13 -5q12 -5 12 -18q0 -3 -2 -9l-16 -35
q65 -32 65 -99zM377 122v230q0 26 -21 43l-146 -328h112q23 0 39 16t16 39zM157 81l145 326h-107q-23 0 -39 -16t-16 -39v-230q0 -24 17 -41z" />
    <glyph glyph-name="Ugrave" unicode="&#xd9;" 
d="M352 552l-6 -12q-3 -6 -16 -6h-5q-1 1 -3 1l-169 72q-17 8 -17 25q0 9 4 16l8 15q9 16 27 16q9 0 14 -4l154 -101q10 -7 10 -17v-3q-1 -1 -1 -2zM453 444v-420q0 -10 -6 -17t-15 -7h-17q-14 0 -22 14l-10 18q-5 9 -18 9t-46 -15q-60 -29 -109 -29h-15q-55 0 -92 32.5
t-37 85.5v329q0 13 8.5 21.5t21.5 8.5h14q12 0 21 -8.5t9 -21.5v-317q0 -25 17.5 -42.5t42.5 -17.5h119q25 0 42.5 17.5t17.5 42.5v317q0 13 8.5 21.5t21.5 8.5h14q12 0 21 -8.5t9 -21.5z" />
    <glyph glyph-name="Uacute" unicode="&#xda;" 
d="M373 632q0 -17 -17 -25l-169 -72q-2 0 -3 -1h-4q-14 0 -17 6l-6 12q0 1 -1 2v3q0 10 10 17l154 101q5 4 14 4q18 0 27 -16l8 -15q4 -7 4 -16zM453 444v-420q0 -10 -6 -17t-15 -7h-17q-14 0 -22 14l-10 18q-5 9 -18 9t-46 -15q-60 -29 -109 -29h-15q-55 0 -92 32.5
t-37 85.5v329q0 13 8.5 21.5t21.5 8.5h14q12 0 21 -8.5t9 -21.5v-317q0 -25 17.5 -42.5t42.5 -17.5h119q25 0 42.5 17.5t17.5 42.5v317q0 13 8.5 21.5t21.5 8.5h14q12 0 21 -8.5t9 -21.5z" />
    <glyph glyph-name="Ucircumflex" unicode="&#xdb;" 
d="M414 543l-9 -9q-4 -4 -11 -4t-14 4l-120 81l-120 -81q-7 -4 -14 -4t-11 4l-9 9q-4 4 -4 11t5 12l109 100q10 10 27 10h34q17 0 27 -10l109 -100q5 -5 5 -12t-4 -11zM453 444v-420q0 -10 -6 -17t-15 -7h-17q-14 0 -22 14l-10 18q-5 9 -18 9t-46 -15q-60 -29 -109 -29h-15
q-55 0 -92 32.5t-37 85.5v329q0 13 8.5 21.5t21.5 8.5h14q12 0 21 -8.5t9 -21.5v-317q0 -25 17.5 -42.5t42.5 -17.5h119q25 0 42.5 17.5t17.5 42.5v317q0 13 8.5 21.5t21.5 8.5h14q12 0 21 -8.5t9 -21.5z" />
    <glyph glyph-name="Udieresis" unicode="&#xdc;" 
d="M371 656v-78q0 -8 -6 -14t-14 -6h-27q-8 0 -14 6t-6 14v78q0 8 6 14t14 6h27q8 0 14 -6t6 -14zM214 656v-78q0 -8 -6 -14t-14 -6h-27q-8 0 -14 6t-6 14v78q0 8 6 14t14 6h27q8 0 14 -6t6 -14zM453 444v-420q0 -10 -6 -17t-15 -7h-17q-14 0 -22 14l-10 18q-5 9 -18 9
t-46 -15q-60 -29 -109 -29h-15q-55 0 -92 32.5t-37 85.5v329q0 13 8.5 21.5t21.5 8.5h14q12 0 21 -8.5t9 -21.5v-317q0 -25 17.5 -42.5t42.5 -17.5h119q25 0 42.5 17.5t17.5 42.5v317q0 13 8.5 21.5t21.5 8.5h14q12 0 21 -8.5t9 -21.5z" />
    <glyph glyph-name="Yacute" unicode="&#xdd;" horiz-adv-x="422" 
d="M335 632q0 -17 -17 -25l-169 -72q-2 0 -3 -1h-4q-14 0 -17 6l-6 12q0 1 -1 2v3q0 10 10 17l154 101q5 4 14 4q18 0 27 -16l8 -15q4 -7 4 -16zM405 439q0 -11 -5 -18l-152 -209v-182q0 -13 -8.5 -21.5t-21.5 -8.5h-14q-13 0 -21.5 8.5t-8.5 21.5v182l-152 209q-5 7 -5 18
q0 17 12 24l12 8q9 6 18 6q15 0 24 -12l128 -179l129 179q9 12 23 12q9 0 18 -6l12 -8q12 -7 12 -24z" />
    <glyph glyph-name="Thorn" unicode="&#xde;" 
d="M453 359v-244q0 -55 -35 -86.5t-94 -31.5h-15q-48 0 -108 29q-35 15 -47 15q-6 0 -10 -6t-4 -13v-211q0 -12 -9 -21.5t-19 -9.5h-17q-11 0 -20 9t-9 21v839q0 27 29 27h17q12 0 20 -8t8 -19v-202q0 -16 14 -16t47 16q62 30 108 30h15q59 0 94 -31.5t35 -86.5zM379 127
v220q0 25 -17.5 42.5t-42.5 17.5h-119q-25 0 -42.5 -17.5t-17.5 -42.5v-220q0 -25 17.5 -42.5t42.5 -17.5h119q25 0 42.5 17.5t17.5 42.5z" />
    <glyph glyph-name="germandbls" unicode="&#xdf;" horiz-adv-x="960" 
d="M910 179v-67q0 -52 -28 -82t-75 -30h-247q-13 0 -21.5 7.5t-8.5 20.5v11q0 13 8.5 20.5t21.5 7.5h233q22 0 32.5 16.5t10.5 40.5v40q0 43 -43 43h-164q-37 0 -68 29q-30 28 -30 72v62q0 36 31 70t83 34h197q13 0 22 -8t9 -20v-11q0 -12 -8.5 -20t-21.5 -8h-181
q-27 0 -42 -14t-15 -37v-37q0 -20 15.5 -35t39.5 -15h161q39 0 64 -24t25 -66zM430 179v-67q0 -52 -28 -82t-75 -30h-247q-13 0 -21.5 7.5t-8.5 20.5v11q0 13 8.5 20.5t21.5 7.5h233q22 0 32.5 16.5t10.5 40.5v40q0 43 -43 43h-164q-37 0 -68 29q-30 28 -30 72v62
q0 36 31 70t83 34h197q13 0 22 -8t9 -20v-11q0 -12 -8.5 -20t-21.5 -8h-181q-27 0 -42 -14t-15 -37v-37q0 -20 15.5 -35t39.5 -15h161q39 0 64 -24t25 -66z" />
    <glyph glyph-name="agrave" unicode="&#xe0;" horiz-adv-x="501" 
d="M348 552l-6 -12q-3 -6 -16 -6h-5q-1 1 -3 1l-169 72q-17 8 -17 25q0 9 4 16l8 15q9 16 27 16q9 0 14 -4l154 -101q10 -7 10 -17v-3q-1 -1 -1 -2zM435 364v-339q0 -10 -6.5 -17.5t-17.5 -7.5h-14q-14 0 -22 14l-10 17q-6 10 -18 10q-13 0 -46 -15q-67 -29 -109 -29h-15
q-61 0 -95 33t-34 85v68q0 52 34 85t95 33h15q46 0 109 -30q32 -16 46 -16t14 18v70q0 64 -65 64h-177q-13 0 -22 8t-9 20v11q0 12 9 20t21 8h204q46 0 79 -34q34 -33 34 -76zM361 118v62q0 21 -15 36t-37 15h-135q-22 0 -37 -15t-15 -36v-62q0 -21 15 -36t37 -15h135
q22 0 37 15t15 36z" />
    <glyph glyph-name="aacute" unicode="&#xe1;" horiz-adv-x="501" 
d="M373 632q0 -17 -17 -25l-169 -72q-2 0 -3 -1h-4q-14 0 -17 6l-6 12q0 1 -1 2v3q0 10 10 17l154 101q5 4 14 4q18 0 27 -16l8 -15q4 -7 4 -16zM435 364v-339q0 -10 -6.5 -17.5t-17.5 -7.5h-14q-14 0 -22 14l-10 17q-6 10 -18 10q-13 0 -46 -15q-67 -29 -109 -29h-15
q-61 0 -95 33t-34 85v68q0 52 34 85t95 33h15q46 0 109 -30q32 -16 46 -16t14 18v70q0 64 -65 64h-177q-13 0 -22 8t-9 20v11q0 12 9 20t21 8h204q46 0 79 -34q34 -33 34 -76zM361 118v62q0 21 -15 36t-37 15h-135q-22 0 -37 -15t-15 -36v-62q0 -21 15 -36t37 -15h135
q22 0 37 15t15 36z" />
    <glyph glyph-name="acircumflex" unicode="&#xe2;" horiz-adv-x="501" 
d="M400 543l-9 -9q-4 -4 -11 -4t-14 4l-120 81l-120 -81q-7 -4 -14 -4t-11 4l-9 9q-4 4 -4 11t5 12l109 100q10 10 27 10h34q17 0 27 -10l109 -100q5 -5 5 -12t-4 -11zM435 364v-339q0 -10 -6.5 -17.5t-17.5 -7.5h-14q-14 0 -22 14l-10 17q-6 10 -18 10q-13 0 -46 -15
q-67 -29 -109 -29h-15q-61 0 -95 33t-34 85v68q0 52 34 85t95 33h15q46 0 109 -30q32 -16 46 -16t14 18v70q0 64 -65 64h-177q-13 0 -22 8t-9 20v11q0 12 9 20t21 8h204q46 0 79 -34q34 -33 34 -76zM361 118v62q0 21 -15 36t-37 15h-135q-22 0 -37 -15t-15 -36v-62
q0 -21 15 -36t37 -15h135q22 0 37 15t15 36z" />
    <glyph glyph-name="atilde" unicode="&#xe3;" horiz-adv-x="501" 
d="M440 655q0 -11 -11 -20l-68 -57q-20 -17 -58 -17q-37 0 -57 20l-36 36q-4 4 -9 4q-6 0 -14 -5l-79 -50q-8 -5 -17 -5q-13 0 -21.5 6.5t-8.5 17.5t11 20l68 57q23 17 57 17q36 0 55 -19l36 -36q5 -5 14 -5q4 0 12 5l79 50q11 6 17 6q30 0 30 -25zM435 364v-339
q0 -10 -6.5 -17.5t-17.5 -7.5h-14q-14 0 -22 14l-10 17q-6 10 -18 10q-13 0 -46 -15q-67 -29 -109 -29h-15q-61 0 -95 33t-34 85v68q0 52 34 85t95 33h15q46 0 109 -30q32 -16 46 -16t14 18v70q0 64 -65 64h-177q-13 0 -22 8t-9 20v11q0 12 9 20t21 8h204q46 0 79 -34
q34 -33 34 -76zM361 118v62q0 21 -15 36t-37 15h-135q-22 0 -37 -15t-15 -36v-62q0 -21 15 -36t37 -15h135q22 0 37 15t15 36z" />
    <glyph glyph-name="adieresis" unicode="&#xe4;" horiz-adv-x="501" 
d="M362 656v-78q0 -8 -6 -14t-14 -6h-27q-8 0 -14 6t-6 14v78q0 8 6 14t14 6h27q8 0 14 -6t6 -14zM205 656v-78q0 -8 -6 -14t-14 -6h-27q-8 0 -14 6t-6 14v78q0 8 6 14t14 6h27q8 0 14 -6t6 -14zM435 364v-339q0 -10 -6.5 -17.5t-17.5 -7.5h-14q-14 0 -22 14l-10 17
q-6 10 -18 10q-13 0 -46 -15q-67 -29 -109 -29h-15q-61 0 -95 33t-34 85v68q0 52 34 85t95 33h15q46 0 109 -30q32 -16 46 -16t14 18v70q0 64 -65 64h-177q-13 0 -22 8t-9 20v11q0 12 9 20t21 8h204q46 0 79 -34q34 -33 34 -76zM361 118v62q0 21 -15 36t-37 15h-135
q-22 0 -37 -15t-15 -36v-62q0 -21 15 -36t37 -15h135q22 0 37 15t15 36z" />
    <glyph glyph-name="aring" unicode="&#xe5;" horiz-adv-x="501" 
d="M358 616v-35q0 -23 -17.5 -41.5t-40.5 -18.5h-101q-23 0 -40.5 18.5t-17.5 41.5v35q0 24 16.5 42t39.5 18h105q23 0 39.5 -18t16.5 -42zM308 589v20q0 17 -17 17h-82q-18 0 -18 -17v-20q0 -7 5 -12.5t12 -5.5h83q17 0 17 18zM435 364v-339q0 -10 -6.5 -17.5t-17.5 -7.5
h-14q-14 0 -22 14l-10 17q-6 10 -18 10q-13 0 -46 -15q-67 -29 -109 -29h-15q-61 0 -95 33t-34 85v68q0 52 34 85t95 33h15q46 0 109 -30q32 -16 46 -16t14 18v70q0 64 -65 64h-177q-13 0 -22 8t-9 20v11q0 12 9 20t21 8h204q46 0 79 -34q34 -33 34 -76zM361 118v62
q0 21 -15 36t-37 15h-135q-22 0 -37 -15t-15 -36v-62q0 -21 15 -36t37 -15h135q22 0 37 15t15 36z" />
    <glyph glyph-name="ae" unicode="&#xe6;" horiz-adv-x="801" 
d="M748 364v-97q0 -29 -16 -44.5t-42 -15.5h-255v-79q0 -61 65 -61h138q13 0 21.5 -7.5t8.5 -20.5v-11q0 -13 -8.5 -20.5t-21.5 -7.5h-166q-29 0 -60 20q-1 1 -3.5 3t-4.5 3q-20 15 -44 15q-14 0 -41 -13q-62 -31 -127 -31h-15q-61 0 -95 33t-34 85v68q0 52 34 85t95 33h15
q46 0 109 -30q32 -16 46 -16t14 18v70q0 64 -65 64h-177q-13 0 -22 8t-9 20v11q0 12 9 20t21 8h204q42 0 76 -32q35 32 78 32h157q46 0 81 -32q34 -31 34 -78zM435 269h239v84q0 23 -16 38.5t-38 15.5h-131q-22 0 -38 -15.5t-16 -38.5v-84zM361 118v62q0 21 -15 36t-37 15
h-135q-22 0 -37 -15t-15 -36v-62q0 -21 15 -36t37 -15h135q22 0 37 15t15 36z" />
    <glyph glyph-name="ccedilla" unicode="&#xe7;" horiz-adv-x="427" 
d="M200 -102v102h-24q-47 0 -78 34q-32 35 -32 80v249q0 47 34 78q35 33 80 33h180q13 0 21.5 -7.5t8.5 -20.5v-11q0 -13 -8.5 -20.5t-21.5 -7.5h-154q-66 0 -66 -65v-213q0 -62 67 -62h165q13 0 21.5 -7.5t8.5 -20.5v-11q0 -13 -8.5 -20.5t-21.5 -7.5h-117v-50h34
q26 0 44 -17t18 -41v-54q0 -24 -17.5 -41t-43.5 -17h-106q-10 0 -16 7t-6 17v7q0 8 7 14.5t15 6.5h86q11 0 18.5 7t7.5 18v13q0 28 -28 28h-68z" />
    <glyph glyph-name="egrave" unicode="&#xe8;" horiz-adv-x="496" 
d="M358 552l-6 -12q-3 -6 -16 -6h-5q-1 1 -3 1l-169 72q-17 8 -17 25q0 9 4 16l8 15q9 16 27 16q9 0 14 -4l154 -101q10 -7 10 -17v-3q-1 -1 -1 -2zM453 364v-97q0 -29 -16 -44.5t-42 -15.5h-255v-79q0 -61 65 -61h138q13 0 21.5 -7.5t8.5 -20.5v-11q0 -13 -8.5 -20.5
t-21.5 -7.5h-168q-44 0 -77 34q-32 35 -32 80v250q0 47 34 78q35 32 81 32h157q46 0 81 -32q34 -31 34 -78zM140 269h239v84q0 23 -16 38.5t-38 15.5h-131q-22 0 -38 -15.5t-16 -38.5v-84z" />
    <glyph glyph-name="eacute" unicode="&#xe9;" horiz-adv-x="496" 
d="M384 632q0 -17 -17 -25l-169 -72q-2 0 -3 -1h-4q-14 0 -17 6l-6 12q0 1 -1 2v3q0 10 10 17l154 101q5 4 14 4q18 0 27 -16l8 -15q4 -7 4 -16zM453 364v-97q0 -29 -16 -44.5t-42 -15.5h-255v-79q0 -61 65 -61h138q13 0 21.5 -7.5t8.5 -20.5v-11q0 -13 -8.5 -20.5
t-21.5 -7.5h-168q-44 0 -77 34q-32 35 -32 80v250q0 47 34 78q35 32 81 32h157q46 0 81 -32q34 -31 34 -78zM140 269h239v84q0 23 -16 38.5t-38 15.5h-131q-22 0 -38 -15.5t-16 -38.5v-84z" />
    <glyph glyph-name="ecircumflex" unicode="&#xea;" horiz-adv-x="496" 
d="M418 543l-9 -9q-4 -4 -11 -4t-14 4l-120 81l-120 -81q-7 -4 -14 -4t-11 4l-9 9q-4 4 -4 11t5 12l109 100q10 10 27 10h34q17 0 27 -10l109 -100q5 -5 5 -12t-4 -11zM453 364v-97q0 -29 -16 -44.5t-42 -15.5h-255v-79q0 -61 65 -61h138q13 0 21.5 -7.5t8.5 -20.5v-11
q0 -13 -8.5 -20.5t-21.5 -7.5h-168q-44 0 -77 34q-32 35 -32 80v250q0 47 34 78q35 32 81 32h157q46 0 81 -32q34 -31 34 -78zM140 269h239v84q0 23 -16 38.5t-38 15.5h-131q-22 0 -38 -15.5t-16 -38.5v-84z" />
    <glyph glyph-name="edieresis" unicode="&#xeb;" horiz-adv-x="496" 
d="M374 656v-78q0 -8 -6 -14t-14 -6h-27q-8 0 -14 6t-6 14v78q0 8 6 14t14 6h27q8 0 14 -6t6 -14zM217 656v-78q0 -8 -6 -14t-14 -6h-27q-8 0 -14 6t-6 14v78q0 8 6 14t14 6h27q8 0 14 -6t6 -14zM453 364v-97q0 -29 -16 -44.5t-42 -15.5h-255v-79q0 -61 65 -61h138
q13 0 21.5 -7.5t8.5 -20.5v-11q0 -13 -8.5 -20.5t-21.5 -7.5h-168q-44 0 -77 34q-32 35 -32 80v250q0 47 34 78q35 32 81 32h157q46 0 81 -32q34 -31 34 -78zM140 269h239v84q0 23 -16 38.5t-38 15.5h-131q-22 0 -38 -15.5t-16 -38.5v-84z" />
    <glyph glyph-name="igrave" unicode="&#xec;" horiz-adv-x="370" 
d="M309 39v-11q0 -13 -8.5 -20.5t-21.5 -7.5h-188q-13 0 -21.5 7.5t-8.5 20.5v11q0 12 8.5 20t21.5 8h57v340h-52q-13 0 -21.5 7.5t-8.5 20.5v11q0 12 8.5 20t21.5 8h178q13 0 21.5 -8t8.5 -20v-11q0 -13 -8.5 -20.5t-21.5 -7.5h-52v-340h57q13 0 21.5 -8t8.5 -20zM292 552
l-6 -12q-3 -6 -16 -6h-5q-1 1 -3 1l-169 72q-17 8 -17 25q0 9 4 16l8 15q9 16 27 16q9 0 14 -4l154 -101q10 -7 10 -17v-3q-1 -1 -1 -2z" />
    <glyph glyph-name="iacute" unicode="&#xed;" horiz-adv-x="370" 
d="M309 39v-11q0 -13 -8.5 -20.5t-21.5 -7.5h-188q-13 0 -21.5 7.5t-8.5 20.5v11q0 12 8.5 20t21.5 8h57v340h-52q-13 0 -21.5 7.5t-8.5 20.5v11q0 12 8.5 20t21.5 8h178q13 0 21.5 -8t8.5 -20v-11q0 -13 -8.5 -20.5t-21.5 -7.5h-52v-340h57q13 0 21.5 -8t8.5 -20zM293 632
q0 -17 -17 -25l-169 -72q-2 0 -3 -1h-4q-14 0 -17 6l-6 12q0 1 -1 2v3q0 10 10 17l154 101q5 4 14 4q18 0 27 -16l8 -15q4 -7 4 -16z" />
    <glyph glyph-name="icircumflex" unicode="&#xee;" horiz-adv-x="370" 
d="M309 39v-11q0 -13 -8.5 -20.5t-21.5 -7.5h-188q-13 0 -21.5 7.5t-8.5 20.5v11q0 12 8.5 20t21.5 8h57v340h-52q-13 0 -21.5 7.5t-8.5 20.5v11q0 12 8.5 20t21.5 8h178q13 0 21.5 -8t8.5 -20v-11q0 -13 -8.5 -20.5t-21.5 -7.5h-52v-340h57q13 0 21.5 -8t8.5 -20zM339 543
l-9 -9q-4 -4 -11 -4t-14 4l-120 81l-120 -81q-7 -4 -14 -4t-11 4l-9 9q-4 4 -4 11t5 12l109 100q10 10 27 10h34q17 0 27 -10l109 -100q5 -5 5 -12t-4 -11z" />
    <glyph glyph-name="idieresis" unicode="&#xef;" horiz-adv-x="370" 
d="M309 39v-11q0 -13 -8.5 -20.5t-21.5 -7.5h-188q-13 0 -21.5 7.5t-8.5 20.5v11q0 12 8.5 20t21.5 8h57v340h-52q-13 0 -21.5 7.5t-8.5 20.5v11q0 12 8.5 20t21.5 8h178q13 0 21.5 -8t8.5 -20v-11q0 -13 -8.5 -20.5t-21.5 -7.5h-52v-340h57q13 0 21.5 -8t8.5 -20zM297 656
v-78q0 -8 -6 -14t-14 -6h-27q-8 0 -14 6t-6 14v78q0 8 6 14t14 6h27q8 0 14 -6t6 -14zM140 656v-78q0 -8 -6 -14t-14 -6h-27q-8 0 -14 6t-6 14v78q0 8 6 14t14 6h27q8 0 14 -6t6 -14z" />
    <glyph glyph-name="eth" unicode="&#xf0;" horiz-adv-x="554" 
d="M488 364v-254q0 -46 -32 -78t-79 -32h-285v202h-38q-13 0 -21.5 7.5t-8.5 20.5v11q0 13 8.5 20.5t21.5 7.5h38v180q0 25 27 25h14q10 0 17 -11l12 -21q8 -11 15 -11q18 0 49 16q57 30 116 30h23q57 0 90 -30.5t33 -82.5zM414 124v228q0 23 -15.5 39t-38.5 16h-138
q-23 0 -39.5 -16t-16.5 -39v-83h124q13 0 21.5 -7.5t8.5 -20.5v-11q0 -13 -8.5 -20.5t-21.5 -7.5h-124v-135h188q23 0 41.5 17.5t18.5 39.5z" />
    <glyph glyph-name="ntilde" unicode="&#xf1;" 
d="M450 655q0 -11 -11 -20l-68 -57q-20 -17 -58 -17q-37 0 -57 20l-36 36q-4 4 -9 4q-6 0 -14 -5l-79 -50q-8 -5 -17 -5q-13 0 -21.5 6.5t-8.5 17.5t11 20l68 57q23 17 57 17q36 0 55 -19l36 -36q5 -5 14 -5q4 0 12 5l79 50q11 6 17 6q30 0 30 -25zM453 359v-329
q0 -13 -9 -21.5t-21 -8.5h-14q-13 0 -21.5 8.5t-8.5 21.5v317q0 25 -17.5 42.5t-42.5 17.5h-119q-25 0 -42.5 -17.5t-17.5 -42.5v-317q0 -13 -9 -21.5t-21 -8.5h-14q-13 0 -21.5 8.5t-8.5 21.5v419q0 25 23 25h14q16 0 23 -14l10 -18q6 -11 17 -11q15 0 48 16q63 30 108 30
h15q59 0 94 -31.5t35 -86.5z" />
    <glyph glyph-name="ograve" unicode="&#xf2;" horiz-adv-x="517" 
d="M362 552l-6 -12q-3 -6 -16 -6h-5q-1 1 -3 1l-169 72q-17 8 -17 25q0 9 4 16l8 15q9 16 27 16q9 0 14 -4l154 -101q10 -7 10 -17v-3q-1 -1 -1 -2zM451 364v-252q0 -46 -32.5 -79t-78.5 -33h-163q-46 0 -78.5 33t-32.5 79v252q0 47 34 78q35 32 81 32h155q46 0 81 -32
q34 -31 34 -78zM377 122v230q0 23 -16 39t-39 16h-127q-23 0 -39 -16t-16 -39v-230q0 -23 16 -39t38 -16h128q23 0 39 16t16 39z" />
    <glyph glyph-name="oacute" unicode="&#xf3;" horiz-adv-x="517" 
d="M367 632q0 -17 -17 -25l-169 -72q-2 0 -3 -1h-4q-14 0 -17 6l-6 12q0 1 -1 2v3q0 10 10 17l154 101q5 4 14 4q18 0 27 -16l8 -15q4 -7 4 -16zM451 364v-252q0 -46 -32.5 -79t-78.5 -33h-163q-46 0 -78.5 33t-32.5 79v252q0 47 34 78q35 32 81 32h155q46 0 81 -32
q34 -31 34 -78zM377 122v230q0 23 -16 39t-39 16h-127q-23 0 -39 -16t-16 -39v-230q0 -23 16 -39t38 -16h128q23 0 39 16t16 39z" />
    <glyph glyph-name="ocircumflex" unicode="&#xf4;" horiz-adv-x="517" 
d="M413 543l-9 -9q-4 -4 -11 -4t-14 4l-120 81l-120 -81q-7 -4 -14 -4t-11 4l-9 9q-4 4 -4 11t5 12l109 100q10 10 27 10h34q17 0 27 -10l109 -100q5 -5 5 -12t-4 -11zM451 364v-252q0 -46 -32.5 -79t-78.5 -33h-163q-46 0 -78.5 33t-32.5 79v252q0 47 34 78q35 32 81 32
h155q46 0 81 -32q34 -31 34 -78zM377 122v230q0 23 -16 39t-39 16h-127q-23 0 -39 -16t-16 -39v-230q0 -23 16 -39t38 -16h128q23 0 39 16t16 39z" />
    <glyph glyph-name="otilde" unicode="&#xf5;" horiz-adv-x="517" 
d="M449 655q0 -11 -11 -20l-68 -57q-20 -17 -58 -17q-37 0 -57 20l-36 36q-4 4 -9 4q-6 0 -14 -5l-79 -50q-8 -5 -17 -5q-12 0 -21 6.5t-9 17.5t11 20l68 57q23 17 57 17q36 0 55 -19l36 -36q5 -5 14 -5q4 0 12 5l79 50q10 6 17 6q30 0 30 -25zM451 364v-252
q0 -46 -32.5 -79t-78.5 -33h-163q-46 0 -78.5 33t-32.5 79v252q0 47 34 78q35 32 81 32h155q46 0 81 -32q34 -31 34 -78zM377 122v230q0 23 -16 39t-39 16h-127q-23 0 -39 -16t-16 -39v-230q0 -23 16 -39t38 -16h128q23 0 39 16t16 39z" />
    <glyph glyph-name="odieresis" unicode="&#xf6;" horiz-adv-x="517" 
d="M371 656v-78q0 -8 -6 -14t-14 -6h-27q-8 0 -14 6t-6 14v78q0 8 6 14t14 6h27q8 0 14 -6t6 -14zM214 656v-78q0 -8 -6 -14t-14 -6h-27q-8 0 -14 6t-6 14v78q0 8 6 14t14 6h27q8 0 14 -6t6 -14zM451 364v-252q0 -46 -32.5 -79t-78.5 -33h-163q-46 0 -78.5 33t-32.5 79v252
q0 47 34 78q35 32 81 32h155q46 0 81 -32q34 -31 34 -78zM377 122v230q0 23 -16 39t-39 16h-127q-23 0 -39 -16t-16 -39v-230q0 -23 16 -39t38 -16h128q23 0 39 16t16 39z" />
    <glyph glyph-name="divide" unicode="&#xf7;" horiz-adv-x="500" 
d="M288 431v-59q0 -11 -8.5 -19.5t-19.5 -8.5h-20q-11 0 -19.5 8.5t-8.5 19.5v59q0 12 8.5 20t19.5 8h20q11 0 19.5 -8t8.5 -20zM455 260v-11q0 -12 -8.5 -20t-21.5 -8h-350q-13 0 -21.5 7.5t-8.5 20.5v11q0 13 8.5 20.5t21.5 7.5h350q13 0 21.5 -8t8.5 -20zM288 137v-59
q0 -11 -8.5 -19.5t-19.5 -8.5h-20q-11 0 -19.5 8.5t-8.5 19.5v59q0 12 8.5 20t19.5 8h20q11 0 19.5 -8t8.5 -20z" />
    <glyph glyph-name="oslash" unicode="&#xf8;" horiz-adv-x="517" 
d="M451 364v-252q0 -46 -32.5 -79t-78.5 -33h-160l-26 -58q-4 -12 -18 -12q-2 0 -8 2l-13 6q-11 6 -11 18v4q1 2 1 4l21 48q-27 14 -43.5 41t-16.5 59v252q0 47 34 78q35 32 81 32h151l20 46q4 12 19 12q2 0 4 -1q1 -1 4 -1l13 -5q12 -5 12 -18q0 -3 -2 -9l-16 -35
q65 -32 65 -99zM377 122v230q0 26 -21 43l-146 -328h112q23 0 39 16t16 39zM157 81l145 326h-107q-23 0 -39 -16t-16 -39v-230q0 -24 17 -41z" />
    <glyph glyph-name="ugrave" unicode="&#xf9;" 
d="M362 552l-6 -12q-3 -6 -16 -6h-5q-1 1 -3 1l-169 72q-17 8 -17 25q0 9 4 16l8 15q9 16 27 16q9 0 14 -4l154 -101q10 -7 10 -17v-3q-1 -1 -1 -2zM453 444v-420q0 -10 -6 -17t-15 -7h-17q-14 0 -22 14l-10 18q-5 9 -18 9t-46 -15q-60 -29 -109 -29h-15q-55 0 -92 32.5
t-37 85.5v329q0 13 8.5 21.5t21.5 8.5h14q12 0 21 -8.5t9 -21.5v-317q0 -25 17.5 -42.5t42.5 -17.5h119q25 0 42.5 17.5t17.5 42.5v317q0 13 8.5 21.5t21.5 8.5h14q12 0 21 -8.5t9 -21.5z" />
    <glyph glyph-name="uacute" unicode="&#xfa;" 
d="M373 632q0 -17 -17 -25l-169 -72q-2 0 -3 -1h-4q-14 0 -17 6l-6 12q0 1 -1 2v3q0 10 10 17l154 101q5 4 14 4q18 0 27 -16l8 -15q4 -7 4 -16zM453 444v-420q0 -10 -6 -17t-15 -7h-17q-14 0 -22 14l-10 18q-5 9 -18 9t-46 -15q-60 -29 -109 -29h-15q-55 0 -92 32.5
t-37 85.5v329q0 13 8.5 21.5t21.5 8.5h14q12 0 21 -8.5t9 -21.5v-317q0 -25 17.5 -42.5t42.5 -17.5h119q25 0 42.5 17.5t17.5 42.5v317q0 13 8.5 21.5t21.5 8.5h14q12 0 21 -8.5t9 -21.5z" />
    <glyph glyph-name="ucircumflex" unicode="&#xfb;" 
d="M414 543l-9 -9q-4 -4 -11 -4t-14 4l-120 81l-120 -81q-7 -4 -14 -4t-11 4l-9 9q-4 4 -4 11t5 12l109 100q10 10 27 10h34q17 0 27 -10l109 -100q5 -5 5 -12t-4 -11zM453 444v-420q0 -10 -6 -17t-15 -7h-17q-14 0 -22 14l-10 18q-5 9 -18 9t-46 -15q-60 -29 -109 -29h-15
q-55 0 -92 32.5t-37 85.5v329q0 13 8.5 21.5t21.5 8.5h14q12 0 21 -8.5t9 -21.5v-317q0 -25 17.5 -42.5t42.5 -17.5h119q25 0 42.5 17.5t17.5 42.5v317q0 13 8.5 21.5t21.5 8.5h14q12 0 21 -8.5t9 -21.5z" />
    <glyph glyph-name="udieresis" unicode="&#xfc;" 
d="M371 656v-78q0 -8 -6 -14t-14 -6h-27q-8 0 -14 6t-6 14v78q0 8 6 14t14 6h27q8 0 14 -6t6 -14zM214 656v-78q0 -8 -6 -14t-14 -6h-27q-8 0 -14 6t-6 14v78q0 8 6 14t14 6h27q8 0 14 -6t6 -14zM453 444v-420q0 -10 -6 -17t-15 -7h-17q-14 0 -22 14l-10 18q-5 9 -18 9
t-46 -15q-60 -29 -109 -29h-15q-55 0 -92 32.5t-37 85.5v329q0 13 8.5 21.5t21.5 8.5h14q12 0 21 -8.5t9 -21.5v-317q0 -25 17.5 -42.5t42.5 -17.5h119q25 0 42.5 17.5t17.5 42.5v317q0 13 8.5 21.5t21.5 8.5h14q12 0 21 -8.5t9 -21.5z" />
    <glyph glyph-name="yacute" unicode="&#xfd;" horiz-adv-x="422" 
d="M335 632q0 -17 -17 -25l-169 -72q-2 0 -3 -1h-4q-14 0 -17 6l-6 12q0 1 -1 2v3q0 10 10 17l154 101q5 4 14 4q18 0 27 -16l8 -15q4 -7 4 -16zM405 439q0 -11 -5 -18l-152 -209v-182q0 -13 -8.5 -21.5t-21.5 -8.5h-14q-13 0 -21.5 8.5t-8.5 21.5v182l-152 209q-5 7 -5 18
q0 17 12 24l12 8q9 6 18 6q15 0 24 -12l128 -179l129 179q9 12 23 12q9 0 18 -6l12 -8q12 -7 12 -24z" />
    <glyph glyph-name="thorn" unicode="&#xfe;" 
d="M453 359v-244q0 -55 -35 -86.5t-94 -31.5h-15q-48 0 -108 29q-35 15 -47 15q-6 0 -10 -6t-4 -13v-211q0 -12 -9 -21.5t-19 -9.5h-17q-11 0 -20 9t-9 21v839q0 27 29 27h17q12 0 20 -8t8 -19v-202q0 -16 14 -16t47 16q62 30 108 30h15q59 0 94 -31.5t35 -86.5zM379 127
v220q0 25 -17.5 42.5t-42.5 17.5h-119q-25 0 -42.5 -17.5t-17.5 -42.5v-220q0 -25 17.5 -42.5t42.5 -17.5h119q25 0 42.5 17.5t17.5 42.5z" />
    <glyph glyph-name="ydieresis" unicode="&#xff;" horiz-adv-x="422" 
d="M323 656v-78q0 -8 -6 -14t-14 -6h-27q-8 0 -14 6t-6 14v78q0 8 6 14t14 6h27q8 0 14 -6t6 -14zM166 656v-78q0 -8 -6 -14t-14 -6h-27q-8 0 -14 6t-6 14v78q0 8 6 14t14 6h27q8 0 14 -6t6 -14zM405 439q0 -11 -5 -18l-152 -209v-182q0 -13 -8.5 -21.5t-21.5 -8.5h-14
q-13 0 -21.5 8.5t-8.5 21.5v182l-152 209q-5 7 -5 18q0 17 12 24l12 8q9 6 18 6q15 0 24 -12l128 -179l129 179q9 12 23 12q9 0 18 -6l12 -8q12 -7 12 -24z" />
    <glyph glyph-name="OE" unicode="&#x152;" horiz-adv-x="773" 
d="M743 39v-11q0 -13 -8.5 -20.5t-21.5 -7.5h-536q-46 0 -78.5 33t-32.5 79v252q0 47 34 78q35 32 81 32h518q13 0 21.5 -7.5t8.5 -20.5v-11q0 -13 -8.5 -20.5t-21.5 -7.5h-248v-138h228q13 0 21.5 -7.5t8.5 -20.5v-11q0 -13 -8.5 -20.5t-21.5 -7.5h-228v-135h262
q13 0 21.5 -7.5t8.5 -20.5zM194 67h183v340h-182q-23 0 -39 -16t-16 -39v-230q0 -23 16 -39t38 -16z" />
    <glyph glyph-name="oe" unicode="&#x153;" horiz-adv-x="817" 
d="M764 364v-97q0 -29 -16 -44.5t-42 -15.5h-255v-79q0 -61 65 -61h138q13 0 21.5 -7.5t8.5 -20.5v-11q0 -13 -8.5 -20.5t-21.5 -7.5h-168q-39 0 -72 31q-34 -31 -74 -31h-163q-46 0 -78.5 33t-32.5 79v252q0 47 34 78q35 32 81 32h155q41 0 78 -32q37 32 78 32h157
q46 0 81 -32q34 -31 34 -78zM451 269h239v84q0 23 -16 38.5t-38 15.5h-131q-22 0 -38 -15.5t-16 -38.5v-84zM377 122v230q0 23 -16 39t-39 16h-127q-23 0 -39 -16t-16 -39v-230q0 -23 16 -39t38 -16h128q23 0 39 16t16 39z" />
    <glyph glyph-name="Scaron" unicode="&#x160;" horiz-adv-x="480" 
d="M377 675l9 -9q4 -4 4 -11t-5 -12l-109 -100q-10 -10 -27 -10h-34q-17 0 -27 10l-109 100q-5 5 -5 12t4 11l9 9q5 5 11 5t14 -5l120 -81l120 81q8 5 14 5t11 -5zM430 179v-67q0 -52 -28 -82t-75 -30h-247q-13 0 -21.5 7.5t-8.5 20.5v11q0 13 8.5 20.5t21.5 7.5h233
q22 0 32.5 16.5t10.5 40.5v40q0 43 -43 43h-164q-37 0 -68 29q-30 28 -30 72v62q0 36 31 70t83 34h197q13 0 22 -8t9 -20v-11q0 -12 -8.5 -20t-21.5 -8h-181q-27 0 -42 -14t-15 -37v-37q0 -20 15.5 -35t39.5 -15h161q39 0 64 -24t25 -66z" />
    <glyph glyph-name="scaron" unicode="&#x161;" horiz-adv-x="480" 
d="M377 675l9 -9q4 -4 4 -11t-5 -12l-109 -100q-10 -10 -27 -10h-34q-17 0 -27 10l-109 100q-5 5 -5 12t4 11l9 9q5 5 11 5t14 -5l120 -81l120 81q8 5 14 5t11 -5zM430 179v-67q0 -52 -28 -82t-75 -30h-247q-13 0 -21.5 7.5t-8.5 20.5v11q0 13 8.5 20.5t21.5 7.5h233
q22 0 32.5 16.5t10.5 40.5v40q0 43 -43 43h-164q-37 0 -68 29q-30 28 -30 72v62q0 36 31 70t83 34h197q13 0 22 -8t9 -20v-11q0 -12 -8.5 -20t-21.5 -8h-181q-27 0 -42 -14t-15 -37v-37q0 -20 15.5 -35t39.5 -15h161q39 0 64 -24t25 -66z" />
    <glyph glyph-name="Ydieresis" unicode="&#x178;" horiz-adv-x="422" 
d="M323 656v-78q0 -8 -6 -14t-14 -6h-27q-8 0 -14 6t-6 14v78q0 8 6 14t14 6h27q8 0 14 -6t6 -14zM166 656v-78q0 -8 -6 -14t-14 -6h-27q-8 0 -14 6t-6 14v78q0 8 6 14t14 6h27q8 0 14 -6t6 -14zM405 439q0 -11 -5 -18l-152 -209v-182q0 -13 -8.5 -21.5t-21.5 -8.5h-14
q-13 0 -21.5 8.5t-8.5 21.5v182l-152 209q-5 7 -5 18q0 17 12 24l12 8q9 6 18 6q15 0 24 -12l128 -179l129 179q9 12 23 12q9 0 18 -6l12 -8q12 -7 12 -24z" />
    <glyph glyph-name="florin" unicode="&#x192;" horiz-adv-x="457" 
d="M471 449v-3l-2 -10q-7 -29 -35 -29h-124q-46 0 -58 -56l-15 -82h109q26 0 26 -23q0 -1 -1 -2v-3l-2 -11q-2 -12 -12 -20t-23 -8h-109l-54 -310q-8 -48 -42 -80t-78 -32h-113q-26 0 -26 23q0 1 1 2v3l2 11q2 12 12 20t23 8h73q66 0 77 63l51 292h-74q-25 0 -25 23v2v3
l2 11q5 28 35 28h74l17 97q8 47 43 77.5t80 30.5h143q26 0 26 -22q0 -2 -1 -3z" />
    <glyph glyph-name="circumflex" unicode="&#x2c6;" horiz-adv-x="268" 
d="M288 543l-9 -9q-4 -4 -11 -4t-14 4l-120 81l-120 -81q-7 -4 -14 -4t-11 4l-9 9q-4 4 -4 11t5 12l109 100q10 10 27 10h34q17 0 27 -10l109 -100q5 -5 5 -12t-4 -11z" />
    <glyph glyph-name="tilde" unicode="&#x2dc;" horiz-adv-x="267" 
d="M323 652q0 -11 -11 -20l-68 -57q-20 -17 -58 -17q-37 0 -57 20l-36 36q-4 4 -9 4q-6 0 -14 -5l-79 -50q-8 -5 -17 -5q-12 0 -21 6.5t-9 17.5t11 20l68 57q23 17 57 17q36 0 55 -19l36 -36q5 -5 14 -5q4 0 12 5l79 50q10 6 17 6q30 0 30 -25z" />
    <glyph glyph-name="endash" unicode="&#x2013;" horiz-adv-x="590" 
d="M556 262v-14q0 -25 -25 -25h-471q-10 0 -18 7.5t-8 17.5v14q0 11 8 18t18 7h471q25 0 25 -25z" />
    <glyph glyph-name="emdash" unicode="&#x2014;" horiz-adv-x="906" 
d="M872 262v-14q0 -25 -25 -25h-787q-10 0 -18 7.5t-8 17.5v14q0 11 8 18t18 7h787q25 0 25 -25z" />
    <glyph glyph-name="quoteleft" unicode="&#x2018;" horiz-adv-x="198" 
d="M146 350v-82q0 -12 -9 -20.5t-21 -8.5h-35q-12 0 -20.5 8t-8.5 20v92q0 31 17 63l28 47q5 8 14 8h3l2 -1l7 -3q8 -3 8 -14v-3q-1 -1 -1 -2l-17 -35q-6 -13 -6 -20q0 -9 19 -20q20 -12 20 -29z" />
    <glyph glyph-name="quoteright" unicode="&#x2019;" horiz-adv-x="198" 
d="M146 446v-92q0 -31 -17 -63l-28 -48q-5 -8 -13 -8q-2 0 -3 1h-2l-8 4q-8 5 -8 13v3q1 1 1 2l17 36q6 14 6 20q0 10 -18 18l-1 1q-20 13 -20 30v82q0 12 9 20.5t21 8.5h35q12 0 20.5 -8t8.5 -20z" />
    <glyph glyph-name="quotesinglbase" unicode="&#x201a;" horiz-adv-x="198" 
d="M146 115v-92q0 -31 -17 -63l-28 -48q-5 -8 -13 -8h-3l-2 1l-8 4q-8 3 -8 13v3q1 1 1 2l17 36q6 14 6 20q0 11 -18 18l-1 1q-20 13 -20 30v82q0 12 9 20.5t21 8.5h35q12 0 20.5 -8t8.5 -20z" />
    <glyph glyph-name="quotedblleft" unicode="&#x201c;" horiz-adv-x="381" 
d="M146 350v-82q0 -12 -9 -20.5t-21 -8.5h-35q-12 0 -20.5 8t-8.5 20v92q0 31 17 63l28 47q5 8 14 8h3l2 -1l7 -3q8 -3 8 -14v-3q-1 -1 -1 -2l-17 -35q-6 -13 -6 -20q0 -9 19 -20q20 -12 20 -29zM329 350v-82q0 -12 -9 -20.5t-21 -8.5h-35q-12 0 -20.5 8t-8.5 20v92
q0 31 17 63l28 47q5 8 14 8h3l2 -1l7 -3q8 -3 8 -14v-3q-1 -1 -1 -2l-17 -35q-6 -13 -6 -20q0 -9 19 -20q20 -12 20 -29z" />
    <glyph glyph-name="quotedblright" unicode="&#x201d;" horiz-adv-x="381" 
d="M146 446v-92q0 -31 -17 -63l-28 -48q-5 -8 -13 -8q-2 0 -3 1h-2l-8 4q-8 5 -8 13v3q1 1 1 2l17 36q6 14 6 20q0 10 -18 18l-1 1q-20 13 -20 30v82q0 12 9 20.5t21 8.5h35q12 0 20.5 -8t8.5 -20zM329 446v-92q0 -31 -17 -63l-28 -48q-5 -8 -13 -8q-2 0 -3 1h-2l-8 4
q-8 5 -8 13v3q1 1 1 2l17 36q6 14 6 20q0 10 -18 18l-1 1q-20 13 -20 30v82q0 12 9 20.5t21 8.5h35q12 0 20.5 -8t8.5 -20z" />
    <glyph glyph-name="quotedblbase" unicode="&#x201e;" horiz-adv-x="381" 
d="M329 115v-92q0 -31 -17 -63l-28 -48q-5 -8 -13 -8h-3l-2 1l-8 4q-8 3 -8 13v3q1 1 1 2l17 36q6 13 6 20q0 11 -18 18l-1 1q-20 13 -20 30v82q0 12 9 20.5t21 8.5h35q12 0 20.5 -8t8.5 -20zM146 115v-92q0 -31 -17 -63l-28 -48q-5 -8 -13 -8h-3l-2 1l-8 4q-8 3 -8 13v3
q1 1 1 2l17 36q6 14 6 20q0 11 -18 18l-1 1q-20 13 -20 30v82q0 12 9 20.5t21 8.5h35q12 0 20.5 -8t8.5 -20z" />
    <glyph glyph-name="dagger" unicode="&#x2020;" horiz-adv-x="512" 
d="M477 248v-24q0 -10 -8 -17.5t-18 -7.5l-167 10l18 -392q0 -37 -37 -37h-19q-36 0 -36 37l17 392l-166 -10q-10 0 -18 7.5t-8 17.5v24q0 9 8 17t18 8l166 -10l-17 183q0 28 29 28h34q29 0 29 -28l-17 -183l166 10q10 0 18 -8t8 -17z" />
    <glyph glyph-name="daggerdbl" unicode="&#x2021;" horiz-adv-x="512" 
d="M477 46v-23q0 -10 -7.5 -18t-18.5 -8l-166 10l17 -199q0 -28 -29 -28h-34q-29 0 -29 28l17 199l-166 -10q-11 0 -18.5 8t-7.5 18v23q0 11 8 18.5t18 7.5l166 -11q-2 15 -6 34q-5 32 -5 39q0 6 5 38q4 26 6 37l-166 -10q-10 0 -18 7.5t-8 17.5v24q0 9 8 17t18 8l166 -10
l-17 183q0 28 29 28h34q29 0 29 -28l-17 -183l166 10q10 0 18 -8t8 -17v-24q0 -10 -8 -17.5t-18 -7.5l-166 10q2 -11 6 -37q5 -32 5 -38q0 -7 -5 -39q-4 -19 -6 -34l166 11q10 0 18 -7.5t8 -18.5z" />
    <glyph glyph-name="bullet" unicode="&#x2022;" horiz-adv-x="420" 
d="M359 294v-79q0 -46 -32 -78t-77 -32h-80q-45 0 -77 32t-32 78v79q0 46 32 77.5t77 31.5h80q45 0 77 -31.5t32 -77.5z" />
    <glyph glyph-name="ellipsis" unicode="&#x2026;" horiz-adv-x="792" 
d="M163 114v-89q0 -10 -10 -17.5t-23 -7.5h-30q-13 0 -22 7.5t-9 19.5v87q0 12 8.5 20.5t21.5 8.5h34q13 0 21.5 -8.5t8.5 -20.5zM443 114v-89q0 -10 -10 -17.5t-23 -7.5h-30q-13 0 -22 7.5t-9 19.5v87q0 12 8.5 20.5t21.5 8.5h34q13 0 21.5 -8.5t8.5 -20.5zM723 114v-89
q0 -10 -10 -17.5t-23 -7.5h-30q-13 0 -22 7.5t-9 19.5v87q0 12 8.5 20.5t21.5 8.5h34q13 0 21.5 -8.5t8.5 -20.5z" />
    <glyph glyph-name="perthousand" unicode="&#x2030;" horiz-adv-x="1040" 
d="M993 189v-109q0 -33 -23.5 -56.5t-56.5 -23.5h-78q-33 0 -56.5 23.5t-23.5 56.5v109q0 33 23.5 56.5t56.5 23.5h78q33 0 56.5 -23.5t23.5 -56.5zM934 81v108q0 25 -25 25h-70q-25 0 -25 -25v-108q0 -10 7.5 -18t17.5 -8h70q11 0 18 8t7 18zM693 189v-109
q0 -33 -23.5 -56.5t-56.5 -23.5h-78q-33 0 -56.5 23.5t-23.5 56.5v109q0 33 23.5 56.5t56.5 23.5h78q33 0 56.5 -23.5t23.5 -56.5zM524 456q0 -5 -2 -9l-259 -446q-5 -9 -14 -9q-6 0 -10 2l-14 8q-9 4 -9 15q0 6 2 10l259 446q5 9 14 9q6 0 10 -2l14 -8q9 -6 9 -16zM285 394
v-109q0 -33 -23 -56.5t-56 -23.5h-78q-34 0 -57.5 23.5t-23.5 56.5v109q0 33 23.5 56.5t56.5 23.5h78q34 0 57 -23.5t23 -56.5zM634 81v108q0 25 -25 25h-70q-25 0 -25 -25v-108q0 -10 7.5 -18t17.5 -8h70q11 0 18 8t7 18zM226 286v108q0 25 -25 25h-70q-25 0 -25 -25v-108
q0 -10 7.5 -18t17.5 -8h70q11 0 18 8t7 18z" />
    <glyph glyph-name="guilsinglleft" unicode="&#x2039;" horiz-adv-x="371" 
d="M331 74q0 -12 -9 -19l-7 -6q-11 -9 -17 -9q-10 0 -17 6l-219 166q-20 13 -20 31v21q0 17 20 32l219 165q7 6 17 6q6 0 17 -9l7 -6q9 -8 9 -19t-9 -18l-194 -161l194 -162q9 -8 9 -18z" />
    <glyph glyph-name="guilsinglright" unicode="&#x203a;" horiz-adv-x="371" 
d="M329 264v-21q0 -18 -20 -31l-219 -166q-8 -6 -17 -6q-7 0 -17 9l-7 6q-9 7 -9 19q0 10 9 18l194 162l-194 161q-9 7 -9 18t9 19l7 6q10 9 17 9q9 0 17 -6l219 -165q20 -15 20 -32z" />
    <glyph glyph-name="trademark" unicode="&#x2122;" horiz-adv-x="714" 
d="M644 453v-260q0 -20 -20 -20h-13q-21 0 -21 20v188l-71 -96q-10 -12 -17 -12h-4q-6 0 -16 12l-72 96v-188q0 -20 -21 -20h-13q-20 0 -20 20v260q0 21 20 21h14q12 0 20 -11l90 -121l90 121q8 11 20 11h14q20 0 20 -21zM313 452v-9q0 -19 -20 -19h-105v-230q0 -8 -6 -14.5
t-15 -6.5h-13q-9 0 -14.5 6t-5.5 15v230h-103q-9 0 -15 6t-6 14v10q0 8 6 14t15 6h262q8 0 14 -6.5t6 -15.5z" />
    <glyph glyph-name="minus" unicode="&#x2212;" horiz-adv-x="500" 
d="M455 260v-11q0 -12 -8.5 -20t-21.5 -8h-350q-13 0 -21.5 7.5t-8.5 20.5v11q0 13 8.5 20.5t21.5 7.5h350q13 0 21.5 -8t8.5 -20z" />
    <glyph glyph-name="nbspace" unicode="&#xe000;" horiz-adv-x="234" 
 />
    </font>
</defs>
</svg>
